<?xml version="1.0" encoding="utf-8"?>
<!-- Generator: Adobe Illustrator 16.0.4, SVG Export Plug-In . SVG Version: 6.00 Build 0)  -->
<!DOCTYPE svg PUBLIC "-//W3C//DTD SVG 1.1//EN" "http://www.w3.org/Graphics/SVG/1.1/DTD/svg11.dtd">
<svg version="1.1" xmlns="http://www.w3.org/2000/svg" xmlns:xlink="http://www.w3.org/1999/xlink" x="0px" y="0px"
	 width="306.03px" height="164px" viewBox="0 0 306.03 164" enable-background="new 0 0 306.03 164" xml:space="preserve">
<g id="Layer_1">
	<g>
		<g>
			<path d="M294.274,76.761c-11.93,20-34.061,45.229-71.13,43.74c-26.681-1.07-59.181-5.141-69.811-30.801
				c-10.64,25.66-43.14,29.73-69.819,30.801c-37.07,1.489-59.2-23.74-71.13-43.74c-2.94-4.92,18.67,12.2,40.6,13.33
				c7.3,0.38,27.33-5.99,32.66-13.33c31.99-43.97,54.04-34.25,67.689-29.22c13.66-5.03,35.71-14.74,67.681,29.22
				c5.33,7.34,25.359,13.71,32.67,13.33C275.604,88.961,297.214,71.841,294.274,76.761z"/>
		</g>
	</g>
</g>
<g id="Layer_2">
</g>
</svg>
