<?xml version="1.0" standalone="no"?>
<!DOCTYPE svg PUBLIC "-//W3C//DTD SVG 1.1//EN" "http://www.w3.org/Graphics/SVG/1.1/DTD/svg11.dtd" >
<svg xmlns="http://www.w3.org/2000/svg">
<metadata></metadata>
<defs>
<font id="signika_negativebold" horiz-adv-x="1085" >
<font-face units-per-em="2048" ascent="1638" descent="-410" />
<missing-glyph horiz-adv-x="450" />
<glyph horiz-adv-x="0" />
<glyph horiz-adv-x="0" />
<glyph horiz-adv-x="682" />
<glyph unicode="&#xd;" horiz-adv-x="380" />
<glyph unicode=" "  horiz-adv-x="450" />
<glyph unicode="&#x09;" horiz-adv-x="450" />
<glyph unicode="&#xa0;" horiz-adv-x="450" />
<glyph unicode="!" horiz-adv-x="624" d="M135 125q0 78 23 119q59 32 147 32q90 0 146 -32q22 -39 22 -119q0 -76 -22 -115q-50 -33 -146 -33q-94 0 -147 33q-23 41 -23 115zM147 1331q53 38 139 62t185 24l18 -22l-69 -971q-46 -14 -113 -14q-74 0 -119 14z" />
<glyph unicode="&#x22;" horiz-adv-x="907" d="M86 1466q0 54 14 119q59 35 136 35q76 0 135 -35q14 -65 14 -119q0 -17 -13 -86.5t-31.5 -176t-29.5 -191.5q-26 -15 -75.5 -15t-75.5 15q-11 85 -29.5 191.5t-31.5 176t-13 86.5zM522 1466q0 50 15 119q59 35 135 35t135 -35q14 -65 14 -119q0 -17 -12.5 -86.5t-31 -176 t-29.5 -191.5q-26 -15 -76 -15t-76 15q-11 85 -29.5 191.5t-31.5 176t-13 86.5z" />
<glyph unicode="#" horiz-adv-x="1449" d="M38 397q0 69 19 121h250l72 320h-215q-19 52 -19 120t19 121h268l57 252q50 22 135.5 22t131.5 -22l-58 -252h246l57 252q49 22 135 22t132 -22l-58 -252h191q19 -53 19 -121t-19 -120h-244l-72 -320h207q19 -52 19 -120.5t-19 -121.5h-262l-55 -251q-49 -22 -135.5 -22 t-130.5 22l55 251h-246l-55 -251q-49 -22 -135.5 -22t-130.5 22l55 251h-195q-19 52 -19 121zM573 518h246l72 320h-246z" />
<glyph unicode="$" horiz-adv-x="1040" d="M47 195q2 59 36.5 128.5t78.5 96.5q214 -111 364 -111q62 0 100 23.5t38 66.5q0 72 -101 107l-194 69q-273 103 -273 326q0 134 87.5 226.5t228.5 119.5v166q39 8 110 8q70 0 111 -8v-162q149 -16 321 -90q0 -65 -29 -130t-75 -105q-206 82 -322 82q-54 0 -85 -23 t-31 -63q0 -31 25.5 -50t76.5 -36l191 -74q131 -49 205.5 -136t74.5 -214q0 -136 -98.5 -226t-261.5 -114v-156q-31 -6 -111 -6q-82 0 -111 6v158q-106 14 -202.5 48.5t-153.5 72.5z" />
<glyph unicode="%" horiz-adv-x="2004" d="M92 985q0 243 105 350q94 90 243 90q152 0 242 -90q106 -106 106 -350q0 -249 -106 -350q-85 -92 -242 -92q-155 0 -243 92q-105 103 -105 350zM340 985q0 -60 3 -99.5t13 -78t31 -57.5t53 -19t53.5 19t31 57t13 78.5t3.5 99.5t-3.5 99t-13 78t-31 56.5t-53.5 18.5 t-53 -18.5t-31 -56.5t-13 -77.5t-3 -99.5zM467 0l774 1399q65 14 159.5 13t133.5 -13l-772 -1399q-65 -14 -160 -13t-135 13zM1217 416q0 244 104 348q92 92 244 92q153 0 241 -92q107 -105 107 -348q0 -248 -107 -353q-86 -90 -241 -90q-158 0 -244 90q-104 104 -104 353z M1462 416q0 -59 3.5 -99.5t14 -78.5t32 -57t53.5 -19t53 19t31 57.5t13 78t3 99.5t-3 99.5t-13 77.5t-31 56.5t-53 18.5q-33 0 -54 -19t-31.5 -56t-14 -77.5t-3.5 -99.5z" />
<glyph unicode="&#x26;" horiz-adv-x="1335" d="M84 367q0 140 76 242t186 136q-90 34 -145.5 118.5t-55.5 193.5q0 166 120.5 269.5t322.5 103.5q226 0 426 -68q3 -59 -18.5 -123.5t-59.5 -105.5q-174 55 -297 55q-85 0 -129.5 -43.5t-44.5 -114.5q0 -84 51.5 -125t159.5 -41h393q123 0 215 39q39 -48 39 -143 q0 -77 -48.5 -115.5t-139.5 -38.5h-48q0 -25 1.5 -67t1.5 -58v-155q0 -165 14 -326q-56 -18 -141 -18q-79 0 -140 14l-20 90q-60 -54 -144 -85.5t-176 -31.5q-187 0 -293 114.5t-106 283.5zM403 395q0 -92 46.5 -140t119.5 -48q124 0 219 82v190q0 57 3 127h-140 q-122 0 -185 -55t-63 -156z" />
<glyph unicode="'" horiz-adv-x="485" d="M84 1466q0 54 14 119q59 35 135 35q77 0 136 -35q14 -65 14 -119q0 -17 -13 -86.5t-31.5 -176t-29.5 -191.5q-26 -15 -75.5 -15t-75.5 15q-11 85 -29.5 191.5t-31.5 176t-13 86.5z" />
<glyph unicode="(" horiz-adv-x="755" d="M121 662q0 185 45.5 375.5t142.5 373.5t232 311q124 -44 176 -159q-136 -190 -206.5 -428.5t-70.5 -472.5t70.5 -474t206.5 -430q-52 -115 -176 -159q-201 192 -310.5 483.5t-109.5 579.5z" />
<glyph unicode=")" horiz-adv-x="755" d="M39 -242q136 189 206 429t70 475q0 234 -70 472.5t-206 428.5q52 115 176 159q135 -128 232 -311t142.5 -373.5t45.5 -375.5q0 -288 -109.5 -579.5t-310.5 -483.5q-124 44 -176 159z" />
<glyph unicode="*" horiz-adv-x="1060" d="M76 1075q-3 46 22 122.5t56 113.5l118 -47q70 -25 189 -111q-45 140 -47 213l-6 129q41 19 121.5 19t123.5 -19l-6 -129q-3 -59 -47 -211q102 71 186 107l121 47q30 -34 55.5 -110.5t22.5 -123.5l-127 -35q-74 -18 -217 -18q116 -89 162 -145l82 -101q-24 -39 -88 -87 t-109 -58l-72 108q-40 58 -86 199q-49 -137 -88 -197l-69 -108q-44 9 -109 56t-90 87l80 103q44 55 164 143q-142 0 -215 20z" />
<glyph unicode="+" d="M96 610q0 60 13 123h172q24 0 67.5 -1t65.5 -1q0 23 -1 67.5t-1 69.5v185q56 10 131 10t131 -10v-185q0 -25 -1 -69.5t-1 -67.5q22 0 65 1t68 1h172q12 -65 12 -123q0 -62 -12 -123h-172q-25 0 -68 1t-65 1q0 -22 1 -64.5t1 -66.5v-186q-56 -10 -127 -10q-79 0 -135 10 v186q0 24 1 66.5t1 64.5q-22 0 -65.5 -1t-67.5 -1h-172q-13 63 -13 123z" />
<glyph unicode="," horiz-adv-x="598" d="M47 -221q75 27 127.5 82t61.5 123q-62 11 -89 30q-22 46 -22 117q0 77 22 123q68 37 154 37q40 0 84 -10t68 -27q26 -66 26 -158q0 -150 -93.5 -278t-264.5 -183q-37 20 -57 60.5t-17 83.5z" />
<glyph unicode="-" horiz-adv-x="763" d="M86 551q0 74 12 123h568q12 -49 12 -123t-12 -123h-568q-12 49 -12 123z" />
<glyph unicode="." horiz-adv-x="579" d="M111 135q0 74 24 121q63 37 156 37q92 0 155 -37q23 -50 23 -121t-23 -121q-53 -34 -155 -34q-103 0 -156 34q-24 47 -24 121z" />
<glyph unicode="/" horiz-adv-x="915" d="M4 -143l643 1714q155 -17 260 -98l-643 -1715q-158 18 -260 99z" />
<glyph unicode="0" d="M66 664q0 198 29 331.5t116 231.5q66 64 142 97.5t190 33.5q115 0 190 -33.5t141 -97.5q88 -99 117 -232.5t29 -330.5t-29 -331t-117 -233q-66 -64 -141.5 -97.5t-189.5 -33.5t-190 33.5t-142 97.5q-87 98 -116 232t-29 332zM379 664q0 -292 43 -385q33 -76 121 -76 t121 76q43 93 43 385t-43 385q-33 75 -121 75t-121 -75q-43 -93 -43 -385z" />
<glyph unicode="1" d="M66 915q289 179 399 412q64 12 143 12q80 0 144 -12v-930q0 -24 -1 -73.5t-1 -75.5q17 0 69.5 1t67.5 1h114q15 -56 15 -125q0 -66 -15 -125h-843q-15 73 -15 125q0 56 15 125h170q14 0 63.5 -1t65.5 -1q0 26 -1 75.5t-1 73.5v297q0 31 6 118.5t8 121.5 q-112 -126 -274 -195q-46 21 -83 70.5t-46 105.5z" />
<glyph unicode="2" d="M82 184q0 156 237 367l220 199q112 101 112 206q0 66 -40 109t-109 43q-70 0 -119 -53t-70 -129q-60 0 -125.5 25.5t-91.5 66.5q40 147 156.5 243.5t279.5 96.5q195 0 313 -112.5t118 -297.5q0 -65 -18.5 -122.5t-57 -109t-76.5 -90t-96 -87.5l-148 -127 q-142 -119 -172 -174q159 20 305 20h295q0 -62 -6 -115q-24 -145 -186 -145h-617q-38 40 -71 92t-33 94z" />
<glyph unicode="3" d="M78 117q10 53 46 106.5t83 91.5q127 -100 266 -100q99 0 158 56.5t59 152.5q0 86 -53.5 136t-134.5 50q-60 0 -115 -24q-37 17 -69 63.5t-46 98.5l201 206q97 97 139 127l-8 15q-34 -10 -101.5 -17.5t-103.5 -7.5h-254q-20 52 -20 115q0 83 27 141h735q61 -111 61 -180 q0 -65 -59 -127l-164 -168q-30 -30 -63 -53q153 -19 246 -119.5t93 -267.5q0 -103 -39.5 -188t-107.5 -140t-156 -85t-186 -30q-133 0 -246 41t-188 107z" />
<glyph unicode="4" d="M47 426q0 35 37 133l334 784q67 12 154.5 -6.5t123.5 -56.5l-151 -358q-43 -109 -104 -237t-109 -198l6 -10q72 7 223 12v46v79q0 112 55.5 177t155.5 65h70l14 -12v-209q0 -27 -1 -73t-1 -70q24 0 56.5 1t58.5 1h61q8 -49 8 -109q0 -75 -18 -143h-166q0 -26 1 -72t1 -72 v-98q-64 -12 -147 -12q-84 0 -148 12v98q0 26 1 72t1 72q-25 0 -72.5 -2t-72.5 -2h-305q-66 105 -66 188z" />
<glyph unicode="5" d="M80 111q10 46 46.5 106.5t78.5 91.5q129 -92 256 -92q94 0 155.5 58.5t61.5 164.5q0 107 -60 160t-151 53q-99 0 -182 -65q-41 7 -85.5 38t-66.5 66l35 619l14 16h740q20 -61 20 -125q0 -63 -34 -96t-97 -33h-336h-26v-59l-9 -105l-6 -39q66 17 121 17 q203 0 319.5 -118.5t116.5 -315.5q0 -96 -28.5 -176.5t-77 -136.5t-113 -95t-137 -57.5t-148.5 -18.5q-120 0 -226 37t-181 105z" />
<glyph unicode="6" d="M70 655q0 329 146.5 516t410.5 187q190 0 327 -72q-3 -60 -29 -117.5t-69 -91.5q-94 41 -205 41q-247 0 -264 -315q113 88 258 88q173 0 272 -110.5t99 -336.5q0 -111 -36.5 -201.5t-99.5 -150t-146.5 -91.5t-178.5 -32q-229 0 -350 152q-45 63 -66 108q-69 155 -69 426z M387 553q0 -223 62 -299q42 -57 110 -57q78 0 117 61.5t39 165.5q0 117 -38.5 170t-111.5 53q-93 0 -178 -72v-22z" />
<glyph unicode="7" d="M94 1176q0 73 29 151h838q53 -117 53 -186q0 -56 -41 -115l-80 -108q-135 -190 -207 -388.5t-94 -437.5l-8 -92q-58 -12 -152 -12q-84 0 -158 12l9 96q21 235 100.5 445.5t194.5 363.5l24 35q18 26 60 73t69 72l-10 11q-46 -11 -139 -18t-148 -7h-323q-17 49 -17 105z " />
<glyph unicode="8" d="M57 338q0 107 62.5 195.5t163.5 148.5q-96 59 -144.5 134.5t-48.5 180.5q0 153 129 257t324 104q202 0 325 -99t123 -255q0 -92 -53 -165.5t-139 -121.5q229 -135 229 -365q-2 -117 -69.5 -205t-179.5 -133t-251 -45q-215 0 -343 99t-128 270zM365 356q0 -77 48.5 -125.5 t129.5 -48.5t127.5 48.5t46.5 123.5q0 69 -48 125t-137 88l-51 19q-116 -94 -116 -230zM389 997q0 -116 180 -178l27 -10q102 71 102 182q0 65 -43.5 107.5t-113.5 42.5q-66 0 -109 -41t-43 -103z" />
<glyph unicode="9" d="M70 883q0 147 63 256.5t166 164t231 54.5q73 0 136 -16t105 -42.5t66.5 -48t43.5 -45.5q45 -63 66 -108q69 -155 69 -426q0 -329 -146.5 -516t-410.5 -187q-191 0 -328 72q3 60 29 117.5t69 91.5q94 -41 205 -41q245 0 262 313q-115 -86 -256 -86q-173 0 -271.5 110 t-98.5 337zM371 903q0 -118 38 -170.5t111 -52.5q94 0 178 72v22q0 224 -61 299q-42 57 -111 57q-78 0 -116.5 -61.5t-38.5 -165.5z" />
<glyph unicode=":" horiz-adv-x="595" d="M119 135q0 74 24 121q63 37 156 37t156 -37q22 -48 22 -121t-22 -121q-53 -34 -156 -34t-156 34q-24 47 -24 121zM119 774q0 74 24 121q63 37 156 37t156 -37q22 -48 22 -121t-22 -121q-55 -35 -156 -35t-156 35q-24 47 -24 121z" />
<glyph unicode=";" horiz-adv-x="604" d="M47 -221q75 27 127.5 82t61.5 123q-62 11 -89 30q-22 46 -22 117q0 77 22 123q68 37 154 37q40 0 84 -10t68 -27q26 -66 26 -158q0 -150 -93.5 -278t-264.5 -183q-37 20 -57 60.5t-17 83.5zM123 774q0 74 24 121q63 37 156 37t156 -37q22 -48 22 -121t-22 -121 q-55 -35 -156 -35t-156 35q-24 47 -24 121z" />
<glyph unicode="&#x3c;" d="M91.5 608.5q-0.5 62.5 14.5 116.5l732 403q57 -31 95.5 -97t41.5 -138l-391 -201q-76 -43 -172 -74v-16q104 -34 172 -72l391 -202q-6 -71 -46 -140t-93 -98l-730 404q-14 52 -14.5 114.5z" />
<glyph unicode="=" d="M96 383q0 69 13 125h868q12 -52 12 -125q0 -72 -12 -121h-868q-13 53 -13 121zM96 842q0 70 13 123h868q12 -49 12 -123t-12 -123h-868q-13 53 -13 123z" />
<glyph unicode="&#x3e;" d="M111 330l391 200q76 43 172 74v14q-96 31 -172 74l-391 201q6 73 45.5 142t93.5 98l729 -406q14 -51 14.5 -114t-14.5 -117l-731 -402q-57 31 -95.5 97.5t-41.5 138.5z" />
<glyph unicode="?" horiz-adv-x="854" d="M6 1313q194 117 416 117q199 0 308.5 -101.5t109.5 -267.5q0 -265 -267 -406l-124 -65l-21 -164q-47 -16 -111 -16q-69 0 -118 16l-17 305l25 31l110 51q203 92 203 213q0 65 -42.5 103t-123.5 38q-104 0 -239 -71q-42 33 -74 96t-35 121zM147 121q0 76 23 117 q51 32 147 32q95 0 146 -32q22 -39 22 -117t-22 -117q-61 -33 -146 -33q-86 0 -147 33q-23 41 -23 117z" />
<glyph unicode="@" horiz-adv-x="1996" d="M82 455q0 273 122.5 489.5t339.5 337.5t488 121q192 0 356.5 -54t285 -154.5t189 -252t68.5 -338.5q0 -151 -39.5 -270t-105 -189t-143.5 -105.5t-162 -35.5q-179 0 -279 121q-59 -58 -132.5 -93.5t-147.5 -35.5q-160 0 -247 128t-87 341q0 239 115 384.5t323 145.5 q113 0 220 -44.5t171 -108.5l-2 -508q0 -58 15.5 -83.5t50.5 -25.5q67 0 108 91t41 296q0 262 -163 414t-435 152q-193 0 -340 -92t-226 -256t-79 -375q0 -315 152 -475t424 -160q201 0 403 78q36 -39 56 -96.5t20 -110.5q-102 -44 -241 -73.5t-261 -29.5 q-190 0 -345.5 52.5t-270.5 157t-178.5 272t-63.5 385.5zM879 479q0 -133 25.5 -194.5t86.5 -61.5q73 0 142 76v23v421q-48 39 -107 39q-147 0 -147 -303z" />
<glyph unicode="A" horiz-adv-x="1298" d="M20 25l455 1374q74 12 180 12q112 0 181 -14l442 -1377q-65 -38 -178 -38q-77 0 -118.5 36t-68.5 134l-43 149q-29 -2 -88 -2h-290q-57 0 -86 2l-91 -303q-47 -12 -133 -12q-94 0 -149 22zM477 545q15 0 45 1t41 1h158q9 0 36.5 -1t41.5 -1l-43 151l-113 414h-10 q-20 -109 -98 -377z" />
<glyph unicode="B" horiz-adv-x="1255" d="M160 10v1379l14 14q324 8 465 8q223 0 349 -93.5t126 -279.5q0 -93 -50.5 -170.5t-129.5 -111.5q103 -33 174.5 -133.5t71.5 -221.5q0 -205 -133 -309t-375 -104q-154 0 -498 8zM467 209q70 2 184 2q50 0 89 13t62 33t38 47.5t20.5 54t5.5 55.5q0 38 -10.5 72t-34 66.5 t-68.5 51.5t-106 19h-180v-414zM467 846h158q99 0 141.5 49.5t42.5 122.5t-42 120.5t-142 47.5q-103 0 -158 2v-342z" />
<glyph unicode="C" horiz-adv-x="1245" d="M78 694q0 150 31 273.5t85 208.5t129 142.5t162.5 84.5t186.5 27q232 0 376 -120.5t144 -301.5q0 -172 -178 -172q-57 0 -119 16v20q0 55 -9 103q-11 56 -36 104t-73 75.5t-115 27.5q-133 0 -194.5 -123t-61.5 -367q0 -220 75 -335t213 -115q94 0 176 38.5t174 106.5 q48 -32 92 -90.5t54 -110.5q-93 -93 -242.5 -155t-310.5 -62q-123 0 -220.5 42t-160 111t-103.5 164.5t-58 196t-17 211.5z" />
<glyph unicode="D" horiz-adv-x="1361" d="M160 10v1379l14 14q235 8 506 8q96 0 202.5 -26.5t170.5 -77.5q133 -105 181 -253.5t48 -353.5q0 -99 -9 -177t-32 -159t-70 -150t-118 -124q-64 -51 -169.5 -76.5t-203.5 -25.5q-150 0 -506 8zM471 231q3 1 49 1h57q101 0 103 -1q59 0 105.5 19.5t76 55.5t50 79t31 99 t14.5 106.5t4 109.5q0 72 -5.5 131t-23.5 124t-47.5 108.5t-82 72.5t-122.5 29q-36 0 -103 1t-106 1v-936z" />
<glyph unicode="E" horiz-adv-x="1171" d="M158 178v1206l14 15h875q10 -47 10 -123q0 -66 -25 -139h-428h-139q0 -28 1 -74t1 -72v-162q53 2 137 2h322q18 -50 18 -129q0 -74 -18 -127h-322h-137v-180q0 -25 -1 -69.5t-1 -71.5v-2q90 4 149 4h484q0 -74 -6 -111q-28 -151 -201 -151h-553q-85 0 -132.5 49 t-47.5 135z" />
<glyph unicode="F" horiz-adv-x="1091" d="M160 0v1386l14 13h866q15 -52 15 -121q0 -76 -41 -110.5t-127 -34.5h-262h-154q2 -57 2 -170v-138h45h400q16 -49 16 -127q0 -80 -16 -129h-400h-45v-569q-64 -12 -154 -12q-95 0 -159 12z" />
<glyph unicode="G" horiz-adv-x="1337" d="M78 690q0 145 36 268t97 209t143 146t173 88.5t188 28.5q280 0 510 -148q-6 -64 -48.5 -128t-93.5 -97q-165 112 -348 112q-160 0 -249 -118t-89 -363q0 -471 348 -471q85 0 189 19v149q0 92 4 141h-113q-78 0 -112.5 30t-34.5 101t22 129l320 2h6q203 0 203 -196v-537 q-254 -86 -539 -86q-154 0 -271.5 51.5t-191.5 147t-111.5 226.5t-37.5 296z" />
<glyph unicode="H" horiz-adv-x="1402" d="M160 0v1399q59 12 155 12q97 0 158 -12v-398q0 -29 -1 -76.5t-1 -74.5q15 0 52 1t52 1h252q13 0 51.5 -1t53.5 -1q0 27 -1 74.5t-1 76.5v398q61 12 155 12q97 0 158 -12v-1399q-64 -12 -153 -12q-96 0 -160 12v440q0 29 1 77t1 75q-15 0 -53.5 -1t-51.5 -1h-252 q-15 0 -52 1t-52 1q0 -27 1 -75t1 -77v-440q-61 -12 -158 -12q-96 0 -155 12z" />
<glyph unicode="I" horiz-adv-x="643" d="M164 0v1399q61 12 158 12q94 0 155 -12v-1399q-61 -12 -155 -12q-97 0 -158 12z" />
<glyph unicode="J" horiz-adv-x="958" d="M20 70q9 60 38 122.5t71 108.5q97 -63 188 -63q108 0 148.5 64t40.5 200v897q61 12 158 12q94 0 155 -12v-867q0 -102 -12 -180.5t-43 -150.5t-82.5 -119t-134.5 -74.5t-195 -27.5q-86 0 -174.5 23t-157.5 67z" />
<glyph unicode="K" horiz-adv-x="1263" d="M160 0v1399q59 12 155 12q97 0 158 -12v-547l59 2q37 0 53.5 13t39.5 55l202 378q32 60 65.5 84.5t98.5 24.5q106 0 187 -8l16 -23l-256 -477q-49 -89 -111 -143q50 -11 87.5 -33t64 -54.5t44 -66t34.5 -80.5l86 -260q3 -7 11 -30t11 -30t10.5 -25.5t13 -27.5t14.5 -23.5 t20 -26t24 -23.5q-30 -44 -86.5 -69t-120.5 -25q-82 0 -121 40.5t-69 137.5l-82 248q-32 100 -78 142t-121 42q-22 0 -96 -4v-590q-61 -12 -158 -12q-96 0 -155 12z" />
<glyph unicode="L" horiz-adv-x="1067" d="M158 178v1221l14 12h115q92 0 138 -47.5t46 -149.5v-956q102 6 191 6h362q0 -68 -8 -117q-12 -75 -65 -114t-140 -39h-471q-85 0 -133.5 49t-48.5 135z" />
<glyph unicode="M" horiz-adv-x="1699" d="M117 4l108 1393q79 14 211 14q122 0 199 -14l131 -520q59 -251 78 -367h12q19 116 78 367l131 520q79 14 197 14q134 0 211 -14l108 -1393q-57 -16 -158 -16q-81 0 -137 10l-33 594q-16 282 -16 465h-14l-213 -850q-56 -10 -162 -10q-101 0 -160 10l-211 850h-14 q-3 -226 -17 -465l-32 -594q-56 -10 -140 -10q-97 0 -157 16z" />
<glyph unicode="N" horiz-adv-x="1421" d="M160 0v1393q73 18 184 18q100 0 182 -12l332 -748l129 -309l8 2q-24 282 -24 592v287q0 103 41 145.5t133 42.5h102l15 -12v-1393q-76 -18 -191 -18q-98 0 -180 12l-340 750q-86 203 -117 288l-8 -2q25 -304 25 -596v-440q-61 -12 -142 -12q-90 0 -149 12z" />
<glyph unicode="O" horiz-adv-x="1361" d="M78 700q0 418 219 600q76 63 166.5 96.5t218.5 33.5t218.5 -33.5t166.5 -96.5q219 -182 219 -600q0 -117 -18 -221t-69 -209t-132 -172q-76 -63 -166.5 -96t-218.5 -33t-218.5 33t-166.5 96q-81 67 -132 172t-69 209t-18 221zM403 700q0 -75 5.5 -136t23 -129.5 t46.5 -115t81.5 -77.5t122.5 -31t121.5 31t80.5 77.5t46.5 115t22.5 129.5t5 136q0 61 -4 113t-13.5 110.5t-29.5 103.5t-49.5 82.5t-75.5 58t-104 20.5q-59 0 -105 -20.5t-76 -58t-50 -82.5t-30 -103.5t-14 -110.5t-4 -113z" />
<glyph unicode="P" horiz-adv-x="1200" d="M160 0v1389l14 14q344 8 469 8q225 0 360.5 -123t135.5 -360q0 -231 -136.5 -356.5t-359.5 -125.5h-170v-446q-61 -12 -158 -12q-96 0 -155 12zM473 682q59 2 143 2q60 0 102.5 23t63 61.5t29 77t8.5 82.5q0 33 -4.5 63.5t-18 64t-35 57.5t-59 40t-86.5 16q-86 0 -143 2 v-489z" />
<glyph unicode="Q" horiz-adv-x="1370" d="M78 700q0 117 19 221t70 209t132 173q150 127 383 127q130 0 221 -32.5t164 -94.5q117 -100 169 -261t52 -344q0 -361 -162 -536q-59 -68 -129 -96l50 -35q81 -57 137.5 -78t120.5 -21q-1 -101 -59 -162t-138 -61q-123 0 -211 78l-211 182h-2q-231 0 -385 127 q-118 101 -169.5 261.5t-51.5 342.5zM399 700q0 -489 283 -489q71 0 123.5 30.5t82.5 77t48 115t23.5 130t5.5 136.5t-5.5 137t-23.5 130t-48 114.5t-82.5 76.5t-123.5 30q-70 0 -122.5 -30t-82.5 -76.5t-48.5 -114t-24 -130t-5.5 -137.5z" />
<glyph unicode="R" horiz-adv-x="1255" d="M160 0v1389l14 14q344 8 483 8q224 0 359 -111t135 -331q0 -138 -74.5 -237.5t-175.5 -137.5q104 -38 156 -186l65 -183q32 -96 101 -149q-31 -42 -88.5 -68t-120.5 -26q-80 0 -119 41t-74 141l-78 223q-22 64 -61 98.5t-117 34.5h-96v-520q-61 -12 -154 -12 q-96 0 -155 12zM469 760q136 4 164 4q198 0 198 205q0 44 -8.5 78.5t-29.5 64.5t-61.5 46t-98.5 16q-103 0 -164 2v-416z" />
<glyph unicode="S" horiz-adv-x="1140" d="M35 123q6 64 41 129t82 104q222 -135 413 -135q88 0 134.5 42.5t46.5 101.5q0 102 -138 163l-241 103q-138 61 -214.5 150t-76.5 225q0 186 141 305t352 119q131 0 257 -34.5t219 -82.5q-4 -67 -33 -130t-74 -106q-87 42 -189 71.5t-180 29.5q-84 0 -129 -39.5t-45 -91.5 q0 -43 30 -76t97 -62l246 -102q148 -64 228.5 -166.5t80.5 -234.5q0 -194 -138 -315.5t-396 -121.5q-127 0 -265 41t-249 113z" />
<glyph unicode="T" horiz-adv-x="1038" d="M10 1268q0 72 10 131h1004q16 -53 16 -121q0 -75 -38.5 -107t-124.5 -32h-72q-14 0 -62.5 1t-64.5 1h-2q0 -29 1 -77t1 -75v-989q-64 -12 -158 -12q-91 0 -155 12v989q0 27 1 75t1 77h-2q-16 0 -64.5 -1t-62.5 -1h-218q-10 59 -10 129z" />
<glyph unicode="U" horiz-adv-x="1378" d="M139 514v885l15 12h114q93 0 139 -47.5t46 -149.5v-704q0 -148 55.5 -219.5t179.5 -71.5q125 0 180.5 71.5t55.5 219.5v889q61 12 153 12q101 0 160 -12v-885q0 -260 -143.5 -402.5t-405.5 -142.5q-261 0 -405 143t-144 402z" />
<glyph unicode="V" horiz-adv-x="1232" d="M20 1370q107 47 191 47q67 0 106.5 -36.5t61.5 -118.5l164 -605q43 -154 80 -368q3 -16 7.5 -21.5t12.5 -5.5l279 1137q54 12 135 12q84 0 143 -20l14 -19l-387 -1372q-111 -12 -249 -12q-42 0 -71.5 5.5t-58 20t-48.5 43.5t-33 74z" />
<glyph unicode="W" horiz-adv-x="1835" d="M35 1380q87 37 166 37q83 0 120 -36.5t52 -135.5l92 -553q44 -249 57 -403q1 -19 5.5 -24t15.5 -5l176 1112q85 14 201 14q117 0 200 -14l162 -1083q3 -20 7.5 -24.5t15.5 -4.5q21 201 61 436l123 703q56 12 139 12q78 0 150 -20l14 -21l-274 -1368q-126 -14 -269 -14 q-39 0 -66.5 5t-55 19t-44.5 43.5t-24 75.5l-74 457q-46 315 -61 479h-17q-28 -236 -69 -479l-97 -586q-133 -14 -262 -14q-42 0 -70.5 4.5t-56.5 19t-46 44t-27 75.5z" />
<glyph unicode="X" horiz-adv-x="1253" d="M20 33l424 690l-389 627q95 67 203 67q67 0 112 -26.5t87 -94.5l190 -307l242 410q49 12 131 12q89 0 164 -27l8 -16l-385 -635l426 -684q-95 -67 -203 -67q-68 0 -113 26.5t-88 95.5l-225 363l-278 -467q-50 -12 -131 -12q-86 0 -166 26z" />
<glyph unicode="Y" horiz-adv-x="1099" d="M-2 1362q94 53 192 53q63 0 100 -29t64 -96l107 -266q47 -119 92 -289h12q34 135 99 299l145 365q52 12 127 12q90 0 154 -22l12 -19l-395 -938v-432q-61 -12 -156 -12q-99 0 -158 12v440z" />
<glyph unicode="Z" horiz-adv-x="1181" d="M80 188q0 65 37 117l465 647q73 102 163 203l-6 6q-138 -18 -315 -18h-299q-12 44 -12 104q0 69 22 152h897q43 -152 43 -193q0 -59 -35 -110l-465 -647q-72 -101 -159 -195l6 -6q176 12 299 12h129q135 0 231 47q21 -68 21 -141q0 -82 -55.5 -124t-149.5 -42h-782 q-35 155 -35 188z" />
<glyph unicode="[" horiz-adv-x="794" d="M201 -315v1992l18 15l498 -17q10 -33 10 -86q0 -72 -22 -123l-205 -6v-1558l205 -6q22 -55 22 -125q0 -54 -10 -84l-498 -19z" />
<glyph unicode="\" horiz-adv-x="915" d="M8 1473q105 81 260 98l643 -1714q-106 -82 -260 -99z" />
<glyph unicode="]" horiz-adv-x="794" d="M68 -229q0 70 22 125l205 6v1558l-205 6q-22 51 -22 123q0 61 10 86l497 17l17 -15v-1992l-17 -17l-497 19q-10 23 -10 84z" />
<glyph unicode="^" d="M61 627l320 700q51 12 160.5 12.5t163.5 -12.5l319 -700q-57 -12 -145.5 -12.5t-145.5 12.5l-108 260q-37 87 -74 213h-16q-37 -126 -74 -213l-109 -260q-57 -13 -145.5 -12.5t-145.5 12.5z" />
<glyph unicode="_" horiz-adv-x="1146" d="M-14 -242q0 66 12 115h1151q12 -61 12 -115q0 -56 -12 -114h-1151q-12 47 -12 114z" />
<glyph unicode="`" horiz-adv-x="815" d="M111 1389q18 58 73 109t113 69l315 -342q-15 -40 -51 -73.5t-76 -45.5z" />
<glyph unicode="a" horiz-adv-x="1048" d="M66 279q0 89 32.5 158.5t89.5 111.5t128 63t153 21q69 0 154 -6v45q0 135 -140 135q-42 0 -99.5 -11.5t-93.5 -21.5t-112 -33q-31 35 -50 93.5t-24 119.5q97 40 228.5 65t234.5 25q72 0 134 -19t114 -58.5t82.5 -109t30.5 -161.5v-417q0 -98 57 -138q-9 -41 -37.5 -87 t-58.5 -70q-142 6 -213 108q-130 -123 -301 -123q-61 0 -113 18.5t-87.5 49t-60.5 71t-36.5 84t-11.5 87.5zM362 299q0 -44 28 -73t73 -29q81 0 160 67v170q-45 2 -123 2q-68 0 -103 -36.5t-35 -100.5z" />
<glyph unicode="b" horiz-adv-x="1093" d="M127 51v1442l14 14h115q91 0 130.5 -42t39.5 -142v-356q112 73 240 73q118 0 200.5 -67.5t122 -182t39.5 -270.5q0 -247 -136 -392q-138 -146 -368 -146q-219 0 -397 69zM426 211q55 -10 104 -10q93 0 140 83t47 236q0 272 -139 275q-86 0 -152 -72v-512z" />
<glyph unicode="c" horiz-adv-x="970" d="M66 508q0 114 26 207t69.5 154.5t102.5 103t123 60t133 18.5q174 0 284.5 -94.5t110.5 -241.5q0 -74 -40 -112t-109 -38q-76 0 -125 10v19q0 116 -23 170q-25 59 -104 59q-74 0 -105.5 -74.5t-31.5 -240.5q0 -161 45.5 -230t140.5 -69q99 0 228 88q36 -21 70.5 -73 t45.5 -97q-69 -72 -175.5 -115t-219.5 -43q-215 0 -330.5 146t-115.5 393z" />
<glyph unicode="d" horiz-adv-x="1099" d="M68 498q0 255 117.5 398.5t291.5 143.5q96 0 195 -47v500l14 14h119q91 0 127.5 -41.5t36.5 -142.5v-1028q0 -51 15.5 -92.5t41.5 -61.5q-7 -40 -35.5 -86.5t-58.5 -70.5q-145 6 -213 114q-55 -59 -129 -94t-156 -35q-180 0 -273 144t-93 385zM381 496q0 -141 36.5 -211 t96.5 -70q91 0 158 88v457q-87 53 -144 53q-74 0 -110.5 -82.5t-36.5 -234.5z" />
<glyph unicode="e" horiz-adv-x="1017" d="M66 504q0 119 26 216.5t79.5 172.5t142 116.5t206.5 41.5q196 0 310 -122.5t114 -312.5q0 -106 -26 -204h-543q7 -98 49.5 -152.5t142.5 -54.5q119 0 267 63q64 -62 84 -182q-77 -55 -184.5 -86t-217.5 -31q-103 0 -182.5 30t-129 79.5t-81.5 120t-44.5 145t-12.5 160.5z M373 623h289v24q0 82 -35.5 134.5t-108.5 52.5q-71 0 -105 -51.5t-40 -159.5z" />
<glyph unicode="f" horiz-adv-x="724" d="M-4 915q0 57 12 107l160 -2q-10 78 -10 143q0 153 97 253t255 100q160 0 305 -56v-11q0 -49 -17 -102q-18 -59 -48 -90q-104 29 -160 29q-67 0 -103 -37t-36 -108q0 -51 10 -123l270 4q12 -50 12 -107t-12 -110l-250 4v-809q-67 -12 -149 -12q-80 0 -148 12v807l-176 -2 q-12 53 -12 110z" />
<glyph unicode="g" horiz-adv-x="1095" d="M68 508q0 129 33 233.5t89.5 171.5t130 102.5t156.5 35.5q159 0 271 -97q70 76 186 82q30 -22 59 -69t35 -86q-26 -20 -41.5 -62t-15.5 -92v-551q0 -198 -25.5 -306t-77.5 -175q-118 -148 -379 -148q-199 0 -380 68q0 55 21.5 120t53.5 101q135 -61 277 -61 q213 0 213 219v69q-111 -83 -238 -83q-122 0 -206 68t-123 184.5t-39 275.5zM381 506q0 -142 35.5 -211.5t95.5 -69.5q89 0 162 76v432v17q-74 71 -144 71q-149 0 -149 -315z" />
<glyph unicode="h" horiz-adv-x="1112" d="M127 0v1493l14 14h119q91 0 128.5 -41.5t37.5 -142.5v-401q137 116 281 116q136 0 210 -98.5t74 -261.5v-426q0 -132 47 -203q-79 -65 -190 -65q-88 0 -125 47t-37 143v447q0 76 -20.5 109.5t-73.5 33.5q-36 0 -81.5 -20t-84.5 -58v-686q-64 -12 -152 -12q-76 0 -147 12z " />
<glyph unicode="i" horiz-adv-x="602" d="M35 909q0 57 12 109q102 10 174 10h41q100 0 157.5 -63t57.5 -172v-793q-61 -12 -151 -12q-86 0 -154 12v688q0 57 -21.5 87t-74.5 30h-29q-12 53 -12 104zM111 1313q0 59 22 114q60 31 148 31q94 0 147 -31q23 -57 23 -114t-23 -115q-53 -31 -147 -31q-100 0 -148 31 q-22 55 -22 115z" />
<glyph unicode="j" horiz-adv-x="616" d="M29 -264q92 38 126.5 89t34.5 161v702q0 117 -96 117h-47q-12 53 -12 104q0 57 12 109q117 10 191 10h41q99 0 156 -63t57 -172v-738q0 -95 -8.5 -161.5t-32 -126t-66 -99.5t-109.5 -70t-163 -49q-33 26 -57 79.5t-27 107.5zM119 1313q0 59 22 114q60 31 148 31 q94 0 147 -31q23 -57 23 -114t-23 -115q-53 -31 -147 -31q-100 0 -148 31q-22 55 -22 115z" />
<glyph unicode="k" horiz-adv-x="1064" d="M127 0v1493l14 14h119q91 0 128.5 -41.5t37.5 -142.5v-659h37q22 0 33.5 7t23.5 29l117 215q29 57 70 85t102 28q60 0 170 -4l12 -16l-166 -312q-40 -72 -102 -114q123 -45 174 -179l51 -151q18 -51 26 -71.5t27.5 -51.5t45.5 -49q-36 -43 -91.5 -69.5t-113.5 -26.5 q-64 0 -98.5 31t-61.5 108l-61 180q-24 65 -51.5 88t-75.5 23q-14 0 -36.5 -1t-31.5 -1v-412q-64 -12 -152 -12q-79 0 -147 12z" />
<glyph unicode="l" horiz-adv-x="636" d="M125 264v1229l14 14h119q91 0 128.5 -41.5t37.5 -142.5v-1004q0 -96 86 -96h59q25 -67 25 -145q0 -41 -6 -68q-122 -20 -215 -20q-132 0 -190 65.5t-58 208.5z" />
<glyph unicode="m" horiz-adv-x="1652" d="M127 0v1020l14 14h115q127 0 164 -129q147 133 282 133q83 0 144 -37.5t96 -105.5q70 64 153.5 103.5t164.5 39.5q131 0 200.5 -90t69.5 -235v-461q0 -129 49 -203q-79 -65 -190 -65q-89 0 -126.5 47t-37.5 143v447q0 79 -29 112t-72 33q-63 0 -143 -80v-686 q-65 -12 -152 -12q-85 0 -153 12v618q0 80 -27 114t-69 34q-70 -3 -148 -78v-688q-64 -12 -151 -12q-86 0 -154 12z" />
<glyph unicode="n" horiz-adv-x="1120" d="M127 0v1020l14 14h115q126 0 162 -123q148 127 295 127q137 0 210.5 -98.5t73.5 -261.5v-426q0 -131 50 -203q-79 -65 -191 -65q-89 0 -126.5 47t-37.5 143v447q0 77 -20 111t-72 34q-38 0 -83.5 -20.5t-84.5 -59.5v-686q-64 -12 -151 -12q-86 0 -154 12z" />
<glyph unicode="o" horiz-adv-x="1069" d="M66 510q0 139 34 241t113 181q122 119 322 119q199 0 321 -119q79 -79 113.5 -181.5t34.5 -240.5t-34.5 -239.5t-113.5 -180.5q-121 -121 -321 -121q-201 0 -322 121q-79 79 -113 180.5t-34 239.5zM379 510q0 -71 6 -122t22 -96.5t48 -69t80 -23.5q39 0 67 16.5t45 43 t26.5 68.5t13 84.5t3.5 98.5q0 72 -6 123t-21.5 97t-47.5 69.5t-80 23.5t-80 -23.5t-48 -69.5t-22 -97.5t-6 -122.5z" />
<glyph unicode="p" horiz-adv-x="1099" d="M127 -428v1448l14 14h82q114 0 170 -100q117 117 273 117q179 0 271.5 -143.5t92.5 -385.5q0 -255 -116.5 -398.5t-290.5 -143.5q-96 0 -195 47v-285q0 -101 -38.5 -142.5t-129.5 -41.5h-119zM428 260q81 -51 141 -51q75 0 112.5 82t37.5 233q0 141 -36.5 211t-96.5 70 q-91 0 -158 -86v-459z" />
<glyph unicode="q" horiz-adv-x="1099" d="M68 508q0 129 33 233.5t89.5 171.5t130 102.5t156.5 35.5q156 0 268 -97q67 76 187 82q29 -22 58 -68.5t38 -86.5q-57 -42 -57 -154v-1155l-15 -14h-118q-91 0 -128.5 41.5t-37.5 142.5v317q-110 -79 -236 -79q-122 0 -206 68t-123 184.5t-39 275.5zM381 506 q0 -141 36 -211t95 -70q89 0 160 74v434v19q-75 69 -142 69q-149 0 -149 -315z" />
<glyph unicode="r" horiz-adv-x="804" d="M68 879q7 41 35.5 88t58.5 69q182 -17 250 -184q79 182 258 182q67 0 133 -16q0 -59 -20.5 -142.5t-55.5 -142.5q-46 16 -102 19q-108 0 -176 -111v-641q-61 -12 -152 -12q-87 0 -154 12v668q0 81 -22.5 134.5t-52.5 76.5z" />
<glyph unicode="s" horiz-adv-x="905" d="M43 72q2 50 27 110t59 94q159 -83 285 -83q61 0 95 21t34 56q0 65 -99 101l-112 41q-258 94 -258 305q0 153 106.5 243.5t284.5 90.5q87 0 194.5 -25t178.5 -59v-8q0 -53 -24 -113q-26 -66 -62 -92q-166 75 -283 75q-44 0 -69 -20.5t-25 -52.5q0 -28 20 -47t66 -37 l125 -45q272 -99 272 -326q0 -151 -113 -241.5t-299 -90.5q-112 0 -218.5 29.5t-184.5 73.5z" />
<glyph unicode="t" horiz-adv-x="759" d="M-2 915q0 63 12 107l160 -2v125q0 101 36.5 142.5t127.5 41.5h119l14 -14v-297l246 4q12 -55 12 -107q0 -55 -12 -110l-246 4v-490q0 -96 90 -96h119q24 -74 24 -145q0 -44 -8 -68q-148 -20 -260 -20q-135 0 -198.5 66.5t-63.5 207.5v543l-160 -2q-12 44 -12 110z" />
<glyph unicode="u" horiz-adv-x="1124" d="M74 971q75 65 190 65q89 0 126.5 -46.5t37.5 -141.5v-449q0 -76 20 -109.5t72 -33.5q37 0 82 19.5t84 56.5v688q64 12 154 12q86 0 153 -12v-729q0 -112 58 -154q-9 -40 -37.5 -84.5t-59.5 -68.5q-163 6 -233 143q-156 -145 -313 -145q-137 0 -211 99t-74 261v428 q0 130 -49 201z" />
<glyph unicode="v" horiz-adv-x="974" d="M-6 997q98 41 168 41q74 0 116 -32.5t60 -108.5l98 -391q10 -37 19.5 -84.5t19 -101t12.5 -70.5q1 -11 5 -14t14 -3l188 787q46 10 111 10q93 0 158 -22l10 -15q-202 -719 -289 -993q-102 -12 -227 -12q-92 0 -139 30t-74 117z" />
<glyph unicode="w" horiz-adv-x="1540" d="M14 1001q87 37 170 37q69 0 101 -31t45 -98l67 -344q44 -212 56 -323q1 -7 2.5 -10t4.5 -5t9 -2l121 785q65 16 176 16q119 0 182 -16l123 -768q1 -7 2.5 -10t4.5 -5t9 -2q25 175 58 340l94 455q49 12 117 12q110 0 162 -24l8 -19l-240 -989q-73 -12 -225 -12 q-94 0 -137 27.5t-56 113.5l-39 229q-1 7 -23 157.5t-32 234.5h-12q-12 -109 -57 -388l-62 -362q-95 -12 -231 -12q-89 0 -133.5 29.5t-63.5 115.5z" />
<glyph unicode="x" horiz-adv-x="978" d="M8 31l316 489l-293 453q94 67 207 67q55 0 88.5 -22t66.5 -72l117 -180l156 254q50 12 120 12q75 0 150 -20l8 -21l-289 -446l324 -496q-101 -67 -207 -67q-56 0 -92.5 22t-67.5 70l-141 219l-174 -293q-37 -12 -119 -12q-100 0 -162 22z" />
<glyph unicode="y" horiz-adv-x="1009" d="M4 -408q-1 11 -1 23q0 45 15 97q18 65 48 98q111 -31 180 -31q154 0 207 178l8 29q-84 2 -135.5 31t-69.5 96l-244 884q89 41 189 41q59 0 94 -29t53 -102l103 -405q19 -68 49 -273q2 -14 18 -14l184 805q52 12 121 12q97 0 164 -22l10 -21l-256 -960 q-31 -117 -66.5 -197t-92 -147.5t-140 -100.5t-196.5 -33q-56 0 -126.5 13t-115.5 28z" />
<glyph unicode="z" horiz-adv-x="919" d="M53 152q0 52 43 112l256 342q47 60 164 193l-6 10q-144 -16 -256 -16h-166q-10 39 -10 94q0 67 16 133h711q39 -115 39 -168q0 -50 -29 -92l-262 -350q-92 -120 -156 -187l6 -8q98 10 166 10h76q125 0 195 33q30 -77 30 -123q0 -135 -165 -135h-617q-35 104 -35 152z" />
<glyph unicode="{" horiz-adv-x="800" d="M76 669.5q0 61.5 14 98.5q75 15 124.5 79t49.5 146v332q0 153 88 245t236 116l133 20q30 -33 48 -97t9 -100l-121 -41q-38 -11 -63 -49.5t-25 -95.5v-326q0 -104 -48.5 -193.5t-129.5 -125.5v-16q80 -35 129 -124.5t49 -195.5v-324q0 -57 25 -95.5t63 -49.5l121 -41 q9 -36 -9 -101t-48 -98l-133 23q-148 23 -236 114.5t-88 245.5v330q0 82 -49.5 147t-124.5 80q-14 35 -14 96.5z" />
<glyph unicode="|" horiz-adv-x="548" d="M133 -291v1874q50 14 143 14q88 0 140 -14v-1874q-54 -12 -140 -12q-91 0 -143 12z" />
<glyph unicode="}" horiz-adv-x="800" d="M25 -168l120 41q36 11 61 49.5t25 95.5v324q0 105 50 195t131 125v16q-81 36 -131 125.5t-50 193.5v326q0 57 -25 95.5t-61 49.5l-120 41q-9 37 8.5 100.5t48.5 96.5l131 -20q148 -24 237 -116.5t89 -244.5v-332q0 -82 48.5 -146t123.5 -79q13 -37 13 -98.5t-13 -96.5 q-75 -15 -123.5 -80t-48.5 -147v-330q0 -154 -89 -245.5t-237 -114.5l-131 -23q-31 33 -48.5 97.5t-8.5 101.5z" />
<glyph unicode="~" horiz-adv-x="1282" d="M66 551l38 65q126 207 324 207q89 0 182 -43l170 -78q52 -22 92 -22q62 0 113 57l49 51q52 -3 106.5 -35t76.5 -81l-41 -66q-123 -207 -322 -207q-89 0 -182 43l-170 76q-52 25 -92 25q-61 0 -113 -58l-49 -53q-52 5 -106 37.5t-76 81.5z" />
<glyph unicode="&#xa1;" horiz-adv-x="624" d="M137 -375l68 971q49 12 112 12q72 0 119 -12l43 -909q-54 -38 -139.5 -61t-185.5 -23zM152 893q0 78 22 117q59 32 148 32q85 0 147 -32q20 -42 20 -117t-20 -117q-56 -33 -147 -33q-95 0 -148 33q-22 39 -22 117z" />
<glyph unicode="&#xa2;" horiz-adv-x="950" d="M57 664q0 228 93 358.5t241 167.5v207q36 8 111 8q69 0 108 -8v-201q129 -26 208 -112t79 -197q0 -166 -164 -166q-68 0 -108 12q4 246 -127 246q-71 0 -101 -76t-30 -239q0 -160 48 -228.5t138 -68.5q96 0 223 88q37 -29 71 -77t42 -91q-47 -54 -123.5 -94.5 t-161.5 -57.5v-203q-29 -6 -108 -6q-84 0 -111 6v205q-92 20 -158.5 72.5t-102 127t-51.5 155t-16 172.5z" />
<glyph unicode="&#xa3;" horiz-adv-x="1099" d="M83 635q0 67 17 108q17 0 54.5 -1t56.5 -1q-4 8 -16.5 37t-17.5 40t-14 36.5t-13 41.5t-7.5 39t-3.5 44q0 67 27.5 133t80 121.5t140 90t195.5 34.5q131 0 246 -49t188 -115q-11 -60 -55.5 -113t-102.5 -73q-56 44 -123.5 72t-130.5 28q-74 0 -121 -41t-47 -113 q0 -21 2.5 -41.5t10.5 -46.5t12 -38.5t17 -46t16 -40.5q50 0 169.5 1t180.5 1q17 -41 17 -108t-17 -111q-216 0 -322 2q-14 -154 -108 -284l6 -6q178 14 354 14h268q0 -63 -4 -100q-13 -75 -66 -114.5t-138 -39.5h-701q-35 157 -35 188q0 62 37 113l27 41q72 101 86 186 h-148q-17 44 -17 111z" />
<glyph unicode="&#xa4;" horiz-adv-x="1206" d="M49 285l144 159q-62 105 -62 238q0 135 59 238l-141 157q22 43 64 84t90 72l166 -150q104 52 231 52q124 0 231 -52l170 154q44 -26 86 -67.5t70 -86.5l-145 -163q59 -103 59 -238q0 -136 -63 -240l143 -159q-53 -91 -154 -156l-172 152q-102 -48 -225 -48 q-125 0 -227 48l-170 -150q-91 56 -154 156zM430 682q0 -98 41.5 -161.5t128.5 -63.5q88 0 130 62.5t42 162.5q0 102 -42 165.5t-130 63.5q-87 0 -128.5 -63.5t-41.5 -165.5z" />
<glyph unicode="&#xa5;" horiz-adv-x="1114" d="M35 1294q110 56 190 56q60 0 90 -24.5t52 -80.5l100 -246q47 -106 90 -270h12q52 170 101 277l139 321q50 14 119 14q74 0 147 -18l12 -14l-223 -480h137q13 -53 13 -96q0 -46 -13 -94h-225l-63 -137h288q13 -51 13 -96q0 -47 -13 -95h-299v-311q-61 -12 -147 -12 q-93 0 -152 12v311h-299q-14 52 -14 95q0 41 14 96h287l-61 137h-226q-14 52 -14 94q0 39 14 96h140z" />
<glyph unicode="&#xa6;" horiz-adv-x="536" d="M129 -291v793q50 14 141 14q86 0 138 -14v-793q-54 -12 -138 -12q-89 0 -141 12zM129 791v792q50 14 141 14q86 0 138 -14v-792q-59 -13 -138 -13q-85 0 -141 13z" />
<glyph unicode="&#xa7;" horiz-adv-x="1019" d="M55 559q0 86 55 163.5t148 135.5q-133 96 -133 246q0 137 110.5 231.5t286.5 94.5q177 0 340 -76q4 -54 -21.5 -116.5t-62.5 -90.5q-147 59 -243 59q-48 0 -78.5 -21.5t-30.5 -56.5q0 -30 21 -50t67 -38l117 -49q77 -32 131.5 -62.5t104 -73t75 -98t25.5 -122.5 q0 -87 -55 -165t-148 -136q135 -97 135 -248q0 -137 -113 -230.5t-297 -93.5q-97 0 -194 22.5t-168 63.5q-3 54 23 116.5t63 90.5q159 -71 274 -71q50 0 80.5 21t30.5 56q0 57 -88 93l-119 49q-60 25 -105.5 48t-91 55.5t-74.5 68t-47 82.5t-18 102zM348 612q0 -56 49 -96 t148 -78l24 -10q48 26 77.5 66t29.5 88q0 55 -51 96t-146 78l-26 10q-47 -28 -76 -68.5t-29 -85.5z" />
<glyph unicode="&#xa8;" horiz-adv-x="815" d="M57 1274q0 53 19 98q54 33 127 33q71 0 129 -33q16 -44 16 -98q0 -57 -16 -98q-58 -33 -129 -33q-73 0 -127 33q-19 45 -19 98zM467 1274q0 54 16 98q58 33 129 33q73 0 127 -33q19 -45 19 -98q0 -56 -19 -98q-54 -33 -127 -33q-71 0 -129 33q-16 44 -16 98z" />
<glyph unicode="&#xa9;" horiz-adv-x="1619" d="M68 698q0 207 97 377.5t267 268.5t377 98q155 0 293 -57.5t236.5 -156.5t156 -237t57.5 -293t-57.5 -292.5t-156 -236t-236.5 -155.5t-293 -57t-292.5 57t-236 155.5t-155.5 236t-57 292.5zM297 698q0 -150 64.5 -273t182.5 -195t265 -72q223 0 368.5 156t145.5 384 q0 150 -65 273.5t-183.5 196.5t-265.5 73t-265 -73t-182.5 -196.5t-64.5 -273.5zM457 700q0 104 31.5 184t84.5 125t114 67t128 22q130 0 216.5 -69t86.5 -169q0 -121 -127 -121q-51 0 -84 11q0 178 -102 178q-111 0 -111 -228q0 -106 41 -160.5t117 -54.5q61 0 172 68 q29 -20 53 -60t29 -75q-45 -49 -130.5 -82t-162.5 -33q-98 0 -169.5 33.5t-111 91.5t-57.5 125.5t-18 146.5z" />
<glyph unicode="&#xaa;" horiz-adv-x="927" d="M80 813q0 139 92 210t236 71q41 0 120 -7v52q0 49 -30.5 73.5t-71.5 24.5q-89 0 -244 -49q-54 60 -61 166q82 34 186 55t189 21q57 0 108 -16t94.5 -48t69 -88.5t25.5 -130.5v-324q0 -87 55 -118q-5 -37 -32 -76t-62 -58q-115 3 -176 86q-115 -96 -240 -96 q-118 0 -188 74t-70 178zM326 827q0 -33 24 -56t62 -23q56 0 118 49q-2 12 -2 39v92q-70 4 -98 4q-51 0 -77.5 -28t-26.5 -77z" />
<glyph unicode="&#xab;" horiz-adv-x="1247" d="M48 522q0 53 15 88l410 385q50 -11 100.5 -58.5t63.5 -96.5l-254 -312l262 -319q-13 -47 -65.5 -94.5t-102.5 -59.5l-414 379q-15 35 -15 88zM585 522q0 53 15 88l410 385q50 -11 100.5 -58.5t63.5 -96.5l-254 -312l262 -319q-13 -47 -65.5 -94.5t-102.5 -59.5l-414 379 q-15 35 -15 88z" />
<glyph unicode="&#xac;" d="M86 623q0 70 12 122h867l14 -14v-479q-51 -10 -127 -10q-71 0 -135 10v125q0 21 1 63t1 62q-22 0 -65.5 -1t-67.5 -1h-488q-12 49 -12 123z" />
<glyph unicode="&#xad;" horiz-adv-x="763" d="M86 551q0 74 12 123h568q12 -49 12 -123t-12 -123h-568q-12 49 -12 123z" />
<glyph unicode="&#xae;" horiz-adv-x="1228" d="M57 965q0 154 73.5 282.5t201.5 202.5t282 74t282 -74t201.5 -202.5t73.5 -282.5t-73.5 -282t-201.5 -201.5t-282 -73.5t-282 73.5t-201.5 201.5t-73.5 282zM236 965q0 -165 108 -279.5t270 -114.5q161 0 270 115t109 279t-109 279.5t-270 115.5q-162 0 -270 -115 t-108 -280zM403 721v506l7 4q25 1 70.5 2.5t82 2.5t66.5 1q107 0 157 -43t50 -109q0 -57 -30 -92t-73 -45q37 -17 68 -76l22 -47q23 -45 47 -59q-17 -25 -47 -40t-61 -15q-30 0 -50.5 14t-37.5 47l-43 88q-11 20 -23 28.5t-35 8.5h-16v-176q-28 -9 -77 -9t-77 9zM557 1014 q11 0 28 1t21 1q66 0 66 53q0 22 -15.5 36.5t-44.5 14.5h-55v-106z" />
<glyph unicode="&#xaf;" horiz-adv-x="815" d="M82 1282q0 56 16 111h621q14 -57 14 -107q0 -60 -14 -115h-621q-16 52 -16 111z" />
<glyph unicode="&#xb0;" horiz-adv-x="710" d="M31 1055q0 142 92 233.5t233 91.5t232.5 -91.5t91.5 -233.5t-91.5 -234t-232.5 -92t-233 92t-92 234zM244 1055q0 -62 30 -98.5t82 -36.5q50 0 80.5 37t30.5 98t-30.5 98t-80.5 37q-52 0 -82 -36.5t-30 -98.5z" />
<glyph unicode="&#xb1;" d="M119 117q0 60 12 112h823q13 -56 13 -112q0 -61 -13 -117h-823q-12 52 -12 117zM119 743q0 57 12 109h156q24 0 66.5 -1t64.5 -1q0 23 -1 69.5t-1 71.5v135q56 13 129 13q71 0 127 -13v-135q0 -25 -1 -71.5t-1 -69.5q21 0 63 1t66 1h155q13 -56 13 -109t-13 -112h-155 q-24 0 -66 1t-63 1q0 -23 1 -69t1 -68v-138q-54 -10 -127 -10q-75 0 -129 10v138q0 22 1 68t1 69q-22 0 -64.5 -1t-66.5 -1h-156q-12 54 -12 112z" />
<glyph unicode="&#xb2;" horiz-adv-x="860" d="M84 809q0 105 137 219l180 150q60 51 60 108q0 33 -22.5 55.5t-55.5 22.5q-36 0 -62 -28.5t-36 -69.5q-48 2 -110 26.5t-83 55.5q23 103 109 173t207 70q144 0 231.5 -80.5t87.5 -205.5q0 -93 -41 -162.5t-125 -132.5l-117 -86q-15 -12 -48 -34.5t-46 -33.5 q128 23 215 23h187q0 -78 -4 -105q-10 -58 -49 -88.5t-101 -30.5h-434q-1 1 -11 14t-12.5 16.5t-11.5 16t-12 18t-10 16.5t-10 18.5t-6.5 17.5t-5 19t-1.5 18z" />
<glyph unicode="&#xb3;" horiz-adv-x="860" d="M82 748q7 44 35 89t65 76q92 -63 170 -63q58 0 90.5 28t32.5 78q0 44 -27.5 74.5t-80.5 30.5q-10 0 -60 -10q-30 10 -62 52t-40 79l137 121q24 22 94 69l-6 8q-59 -12 -164 -12h-137q-14 43 -14 98q0 68 20 111h520q54 -92 54 -143q0 -64 -56 -113l-96 -80 q-27 -23 -51 -35q102 -11 167.5 -82.5t65.5 -175.5q0 -93 -49 -162.5t-126 -103t-169 -33.5q-192 0 -313 99z" />
<glyph unicode="&#xb4;" horiz-adv-x="815" d="M217 1225l315 342q58 -18 114 -69t73 -109l-375 -283q-39 12 -74.5 45t-52.5 74z" />
<glyph unicode="&#xb6;" horiz-adv-x="1515" d="M57 952q0 120 37.5 209.5t106 143.5t158 80t200.5 26q19 0 301 -10l14 -15v-1196q0 -137 -21 -228t-83 -159q-115 -129 -358 -129q-160 0 -297 52q0 49 17 115t48 106q110 -43 201 -43q95 0 141 51q45 48 45 174v358h-26q-102 0 -189 29t-153.5 85t-104 146t-37.5 205z M999 -268v1652l15 15h461q13 -43 13 -131t-13 -131h-60q-36 0 -106 4v-1409q-66 -13 -152 -13q-94 0 -158 13z" />
<glyph unicode="&#xb7;" horiz-adv-x="667" d="M166 586q0 73 22 121q58 36 146 36q89 0 147 -36q21 -53 21 -121t-21 -121q-52 -35 -147 -35q-94 0 -146 35q-22 48 -22 121z" />
<glyph unicode="&#xb8;" horiz-adv-x="815" d="M211 -426q4 83 51 133q43 -26 96 -26q36 0 56 16.5t20 44.5t-18.5 45.5t-48.5 17.5q-19 0 -43 -8q-31 14 -45 45q16 71 53 158h162q-24 -42 -33 -66q94 -6 149.5 -56.5t55.5 -125.5q0 -100 -78 -162.5t-203 -62.5q-48 0 -96.5 13.5t-77.5 33.5z" />
<glyph unicode="&#xb9;" horiz-adv-x="860" d="M76 1274q113 68 175 134t109 165q65 12 121 12q43 0 117 -12v-694h168q12 -53 12 -111q0 -60 -12 -109h-619q-12 53 -12 109q0 58 12 111h203v194q0 34 8 166q-53 -66 -168 -121q-41 21 -72.5 66.5t-41.5 89.5z" />
<glyph unicode="&#xba;" horiz-adv-x="921" d="M82 995q0 216 123 342q96 93 256 93t256 -93q121 -127 121 -342q0 -220 -121 -344q-95 -92 -256 -92t-256 92q-123 123 -123 344zM336 995q0 -243 125 -243t125 243q0 242 -125 242t-125 -242z" />
<glyph unicode="&#xbb;" horiz-adv-x="1247" d="M66 842q13 47 65 94.5t102 58.5l414 -379q15 -35 15 -87t-15 -87l-409 -387q-50 12 -100 60t-64 96l254 313zM602 842q13 47 65.5 94.5t102.5 58.5l414 -379q15 -35 15 -87t-15 -87l-410 -387q-50 12 -100 60t-64 96l254 313z" />
<glyph unicode="&#xbc;" horiz-adv-x="2129" d="M55 1100q114 68 176 134t109 165q64 12 121 12q43 0 117 -12v-694h167q13 -57 13 -111q0 -55 -13 -109h-618q-12 52 -12 109q0 58 12 111h203v194q0 34 8 166q-53 -66 -168 -121q-41 21 -73 66.5t-42 89.5zM598 0l774 1399q65 14 159.5 13t133.5 -13l-772 -1399 q-65 -14 -160 -13t-135 13zM1321 309q0 45 31 101l233 526q60 6 131.5 -9t110.5 -44l-113 -246q-92 -207 -149 -277l4 -4q83 9 133 9v20v49q0 86 46.5 135t129.5 49h59l9 -10v-94q0 -22 -1 -75t-1 -72h110q8 -36 8 -78q0 -70 -20 -131h-33q-9 0 -32.5 1t-32.5 1v-144 q-44 -12 -115 -12q-75 0 -127 12v43q0 21 1 51.5t1 49.5q-21 0 -54.5 -1t-56.5 -1h-217q-55 93 -55 151z" />
<glyph unicode="&#xbd;" horiz-adv-x="2129" d="M55 1100q114 68 176 134t109 165q64 12 121 12q43 0 117 -12v-694h167q13 -57 13 -111q0 -55 -13 -109h-618q-12 52 -12 109q0 58 12 111h203v194q0 34 8 166q-53 -66 -168 -121q-41 21 -73 66.5t-42 89.5zM573 0l775 1399q65 14 159 13t133 -13l-772 -1399 q-65 -14 -160 -13t-135 13zM1372 164q0 105 137 219l181 149q59 50 59 109q0 33 -22.5 55.5t-55.5 22.5q-36 0 -62 -28.5t-36 -69.5q-48 2 -110 26.5t-83 54.5q23 104 109 174t207 70q144 0 231.5 -81t87.5 -206q0 -93 -41 -162t-125 -132l-116 -86q-16 -12 -49 -35t-46 -33 q123 22 215 22h187q0 -77 -4 -104q-10 -58 -49 -88.5t-101 -30.5h-434q-1 1 -11 14t-12.5 16.5t-11.5 16t-12 18t-10 16.5t-10 18.5t-6.5 17.5t-5 19t-1.5 18z" />
<glyph unicode="&#xbe;" horiz-adv-x="2129" d="M90 573q7 44 35 89.5t65 76.5q92 -63 170 -63q58 0 90.5 28t32.5 78q0 44 -27.5 74.5t-80.5 30.5q-10 0 -60 -10q-30 10 -62 52t-40 79l137 120q28 26 94 70l-6 8q-59 -12 -164 -12h-137q-14 43 -14 98q0 68 20 111h521q53 -90 53 -143q0 -65 -55 -113l-97 -80 q-27 -23 -51 -35q102 -11 168 -82.5t66 -175.5q0 -138 -101 -218.5t-244 -80.5q-193 0 -313 98zM545 0l774 1399q65 14 159.5 13t133.5 -13l-772 -1399q-65 -14 -160 -13t-135 13zM1282 309q0 45 31 101l233 526q60 6 131.5 -9t110.5 -44l-113 -246q-92 -207 -149 -277l4 -4 q83 9 133 9v20v49q0 86 46.5 135t129.5 49h59l9 -10v-94q0 -22 -1 -75t-1 -72h110q8 -36 8 -78q0 -70 -20 -131h-33q-9 0 -32.5 1t-32.5 1v-144q-44 -12 -115 -12q-75 0 -127 12v43q0 21 1 51.5t1 49.5q-21 0 -54.5 -1t-56.5 -1h-217q-55 93 -55 151z" />
<glyph unicode="&#xbf;" horiz-adv-x="854" d="M27 -45q0 262 268 403l125 66l18 164q49 16 113 16q70 0 119 -16l16 -305l-24 -31l-111 -49q-205 -96 -205 -215q0 -65 43.5 -103.5t124.5 -38.5q105 0 238 72q43 -32 75 -95.5t35 -121.5q-194 -117 -418 -117q-198 0 -307.5 102t-109.5 269zM383 893q0 76 23 117 q56 32 145 32q88 0 147 -32q23 -41 23 -117t-23 -117q-53 -33 -147 -33q-95 0 -145 33q-23 41 -23 117z" />
<glyph unicode="&#xc0;" horiz-adv-x="1298" d="M20 25l455 1374q74 12 180 12q112 0 181 -14l442 -1377q-65 -38 -178 -38q-77 0 -118.5 36t-68.5 134l-43 149q-29 -2 -88 -2h-290q-57 0 -86 2l-91 -303q-47 -12 -133 -12q-94 0 -149 22zM350 1681q6 64 43.5 132t77.5 100l453 -277q-6 -45 -28.5 -85.5t-57.5 -61.5z M477 545q15 0 45 1t41 1h158q9 0 36.5 -1t41.5 -1l-43 151l-113 414h-10q-20 -109 -98 -377z" />
<glyph unicode="&#xc1;" horiz-adv-x="1298" d="M20 25l455 1374q74 12 180 12q112 0 181 -14l442 -1377q-65 -38 -178 -38q-77 0 -118.5 36t-68.5 134l-43 149q-29 -2 -88 -2h-290q-57 0 -86 2l-91 -303q-47 -12 -133 -12q-94 0 -149 22zM408 1636l452 277q40 -32 77.5 -100t43.5 -132l-487 -192q-31 18 -56 62.5 t-30 84.5zM477 545q15 0 45 1t41 1h158q9 0 36.5 -1t41.5 -1l-43 151l-113 414h-10q-20 -109 -98 -377z" />
<glyph unicode="&#xc2;" horiz-adv-x="1298" d="M20 25l455 1374q74 12 180 12q112 0 181 -14l442 -1377q-65 -38 -178 -38q-77 0 -118.5 36t-68.5 134l-43 149q-29 -2 -88 -2h-290q-57 0 -86 2l-91 -303q-47 -12 -133 -12q-94 0 -149 22zM283 1610l241 245q55 13 129.5 13.5t126.5 -10.5l232 -226q-12 -42 -49 -77.5 t-72 -49.5l-240 154l-243 -176q-34 12 -74.5 50.5t-50.5 76.5zM477 545q15 0 45 1t41 1h158q9 0 36.5 -1t41.5 -1l-43 151l-113 414h-10q-20 -109 -98 -377z" />
<glyph unicode="&#xc3;" horiz-adv-x="1298" d="M20 25l455 1374q74 12 180 12q112 0 181 -14l442 -1377q-65 -38 -178 -38q-77 0 -118.5 36t-68.5 134l-43 149q-29 -2 -88 -2h-290q-57 0 -86 2l-91 -303q-47 -12 -133 -12q-94 0 -149 22zM250 1634l18 41q38 80 102 127t146 47q72 0 135 -34l99 -48q32 -18 63 -18 q41 0 76 49l18 27q44 0 90 -26.5t64 -65.5l-19 -39q-38 -81 -102 -128.5t-145 -47.5q-62 0 -136 34l-98 47q-34 19 -63 19q-43 0 -76 -49l-19 -25q-45 0 -90.5 26t-62.5 64zM477 545q15 0 45 1t41 1h158q9 0 36.5 -1t41.5 -1l-43 151l-113 414h-10q-20 -109 -98 -377z" />
<glyph unicode="&#xc4;" horiz-adv-x="1298" d="M20 25l455 1374q74 12 180 12q112 0 181 -14l442 -1377q-65 -38 -178 -38q-77 0 -118.5 36t-68.5 134l-43 149q-29 -2 -88 -2h-290q-57 0 -86 2l-91 -303q-47 -12 -133 -12q-94 0 -149 22zM274 1640q0 66 25 101q49 33 117 33q67 0 127 -33q24 -30 24 -101 q0 -72 -24 -100q-58 -35 -127 -35q-70 0 -117 35q-25 32 -25 100zM477 545q15 0 45 1t41 1h158q9 0 36.5 -1t41.5 -1l-43 151l-113 414h-10q-20 -109 -98 -377zM739 1640q0 65 29 101q61 33 127 33q64 0 117 -33q24 -33 24 -101q0 -69 -24 -100q-51 -35 -117 -35 q-69 0 -127 35q-29 33 -29 100z" />
<glyph unicode="&#xc5;" horiz-adv-x="1298" d="M20 25l455 1374q6 0 10 2q-54 34 -84 89.5t-30 121.5q0 110 79 184t205 74t204.5 -74t78.5 -184q0 -66 -30.5 -122t-84.5 -91q2 0 6.5 -1t6.5 -1l442 -1377q-65 -38 -178 -38q-77 0 -118.5 36t-68.5 134l-43 149q-29 -2 -88 -2h-290q-57 0 -86 2l-91 -303 q-47 -12 -133 -12q-94 0 -149 22zM477 545q15 0 45 1t41 1h158q9 0 36.5 -1t41.5 -1l-43 151l-113 414h-10q-20 -109 -98 -377zM553 1612q0 -45 28.5 -75t73.5 -30t73 30t28 75t-28 74.5t-73 29.5t-73.5 -29.5t-28.5 -74.5z" />
<glyph unicode="&#xc6;" horiz-adv-x="1812" d="M12 25l615 1347q61 27 188 27h873q12 -56 12 -123q0 -60 -27 -139h-434h-137q0 -28 1 -74t1 -72v-162q53 2 135 2h330q16 -52 16 -129q0 -72 -16 -127h-330h-135v-176q0 -25 -1 -71.5t-1 -73.5v-2q90 4 147 4h490q0 -74 -6 -111q-12 -74 -63.5 -112.5t-137.5 -38.5h-553 q-84 0 -131 48.5t-47 135.5v123q-27 -2 -76 -2h-182q-57 0 -86 2l-129 -301q-47 -12 -146 -12q-103 0 -159 20zM559 543q13 0 38 1t34 1h92q9 0 36.5 -1t41.5 -1v567h-8q-71 -193 -152 -379z" />
<glyph unicode="&#xc7;" horiz-adv-x="1245" d="M78 694q0 150 31 273.5t85 208.5t129 142.5t162.5 84.5t186.5 27q232 0 376 -120.5t144 -301.5q0 -172 -178 -172q-57 0 -119 16q2 67 -9 123t-36 104t-73 75.5t-115 27.5q-133 0 -194.5 -123t-61.5 -367q0 -220 75 -335t213 -115q94 0 176 38.5t174 106.5 q48 -32 92 -90.5t54 -110.5q-80 -80 -203.5 -138t-263.5 -75q-10 -15 -18 -39q94 -6 149 -56.5t55 -125.5q0 -100 -78 -162.5t-202 -62.5q-48 0 -96.5 13.5t-75.5 33.5q4 85 49 133q46 -26 96 -26q36 0 57 16.5t21 44.5t-19.5 45.5t-50.5 17.5q-19 0 -43 -8q-31 14 -45 45 q14 63 41 131q-107 11 -191 58t-138.5 116t-90 160.5t-50.5 186.5t-15 200z" />
<glyph unicode="&#xc8;" horiz-adv-x="1171" d="M158 178v1206l14 15h875q10 -47 10 -123q0 -66 -25 -139h-428h-139q0 -28 1 -74t1 -72v-162q53 2 137 2h322q18 -50 18 -129q0 -74 -18 -127h-322h-137v-180q0 -25 -1 -69.5t-1 -71.5v-2q90 4 149 4h484q0 -74 -6 -111q-28 -151 -201 -151h-553q-85 0 -132.5 49 t-47.5 135zM307 1681q6 64 43.5 132t77.5 100l453 -277q-6 -45 -28.5 -85.5t-57.5 -61.5z" />
<glyph unicode="&#xc9;" horiz-adv-x="1171" d="M158 178v1206l14 15h875q10 -47 10 -123q0 -66 -25 -139h-428h-139q0 -28 1 -74t1 -72v-162q53 2 137 2h322q18 -50 18 -129q0 -74 -18 -127h-322h-137v-180q0 -25 -1 -69.5t-1 -71.5v-2q90 4 149 4h484q0 -74 -6 -111q-28 -151 -201 -151h-553q-85 0 -132.5 49 t-47.5 135zM365 1636l452 277q40 -32 77.5 -100t43.5 -132l-487 -192q-31 18 -56 62.5t-30 84.5z" />
<glyph unicode="&#xca;" horiz-adv-x="1171" d="M158 178v1206l14 15h875q10 -47 10 -123q0 -66 -25 -139h-428h-139q0 -28 1 -74t1 -72v-162q53 2 137 2h322q18 -50 18 -129q0 -74 -18 -127h-322h-137v-180q0 -25 -1 -69.5t-1 -71.5v-2q90 4 149 4h484q0 -74 -6 -111q-28 -151 -201 -151h-553q-85 0 -132.5 49 t-47.5 135zM240 1610l241 245q55 13 129.5 13.5t126.5 -10.5l232 -226q-12 -42 -49 -77.5t-72 -49.5l-240 154l-243 -176q-34 12 -74.5 50.5t-50.5 76.5z" />
<glyph unicode="&#xcb;" horiz-adv-x="1171" d="M158 178v1206l14 15h875q10 -47 10 -123q0 -66 -25 -139h-428h-139q0 -28 1 -74t1 -72v-162q53 2 137 2h322q18 -50 18 -129q0 -74 -18 -127h-322h-137v-180q0 -25 -1 -69.5t-1 -71.5v-2q90 4 149 4h484q0 -74 -6 -111q-28 -151 -201 -151h-553q-85 0 -132.5 49 t-47.5 135zM231 1640q0 66 25 101q50 33 117 33q66 0 127 -33q24 -30 24 -101q0 -72 -24 -100q-58 -35 -127 -35q-70 0 -117 35q-25 32 -25 100zM696 1640q0 65 29 101q61 33 127 33q64 0 117 -33q24 -33 24 -101q0 -69 -24 -100q-51 -35 -117 -35q-69 0 -127 35 q-29 33 -29 100z" />
<glyph unicode="&#xcc;" horiz-adv-x="643" d="M16 1683q6 64 43.5 132t77.5 100l453 -277q-6 -45 -28.5 -85.5t-57.5 -61.5zM164 0v1399q61 12 158 12q94 0 155 -12v-1399q-61 -12 -155 -12q-97 0 -158 12z" />
<glyph unicode="&#xcd;" horiz-adv-x="643" d="M74 1638l452 277q40 -32 77.5 -100t43.5 -132l-487 -192q-31 18 -56 62.5t-30 84.5zM164 0v1399q61 12 158 12q94 0 155 -12v-1399q-61 -12 -155 -12q-97 0 -158 12z" />
<glyph unicode="&#xce;" horiz-adv-x="643" d="M-51 1612l241 246q55 13 127 13t129 -11l232 -226q-12 -42 -49 -77.5t-72 -49.5l-240 154l-243 -176q-34 12 -74.5 50.5t-50.5 76.5zM164 0v1399q61 12 158 12q94 0 155 -12v-1399q-61 -12 -155 -12q-97 0 -158 12z" />
<glyph unicode="&#xcf;" horiz-adv-x="643" d="M-59 1642q0 68 24 101q50 33 117 33q66 0 127 -33q24 -30 24 -101q0 -72 -24 -100q-58 -35 -127 -35q-70 0 -117 35q-24 31 -24 100zM164 0v1399q61 12 158 12q94 0 155 -12v-1399q-61 -12 -155 -12q-97 0 -158 12zM406 1642q0 66 28 101q61 33 127 33q64 0 117 -33 q24 -33 24 -101q0 -69 -24 -100q-51 -35 -117 -35q-69 0 -127 35q-28 32 -28 100z" />
<glyph unicode="&#xd0;" horiz-adv-x="1392" d="M37 707q0 81 14 129h139v553l15 14q237 8 508 8q96 0 201.5 -26.5t170.5 -77.5q69 -55 115.5 -124t70 -149t33 -158.5t9.5 -175.5q0 -207 -47.5 -356t-180.5 -254q-65 -51 -170 -76.5t-202 -25.5q-152 0 -508 8l-15 14v574h-139q-14 46 -14 123zM496 231h217 q59 0 105 19.5t75.5 55.5t49.5 79t30 99.5t14 106.5t4 109q0 50 -2.5 93t-10 92t-20 88t-34 76t-50 61.5t-69.5 39.5t-92 15q-37 0 -108 1t-109 1v-331h268q12 -62 12 -125q0 -69 -12 -127h-268v-353z" />
<glyph unicode="&#xd1;" horiz-adv-x="1421" d="M160 0v1393q73 18 184 18q100 0 182 -12l332 -748l129 -309l8 2q-24 282 -24 592v287q0 103 41 145.5t133 42.5h102l15 -12v-1393q-76 -18 -191 -18q-98 0 -180 12l-340 750q-86 203 -117 288l-8 -2q25 -304 25 -596v-440q-61 -12 -142 -12q-90 0 -149 12zM311 1634 l19 41q38 80 102 127t146 47q72 0 135 -34l98 -48q32 -18 63 -18q41 0 76 49l19 27q44 0 89.5 -26.5t63.5 -65.5l-18 -39q-38 -81 -102.5 -128.5t-145.5 -47.5q-61 0 -135 34l-98 47q-34 19 -64 19q-43 0 -76 -49l-18 -25q-45 0 -91 26t-63 64z" />
<glyph unicode="&#xd2;" horiz-adv-x="1361" d="M78 700q0 418 219 600q76 63 166.5 96.5t218.5 33.5t218.5 -33.5t166.5 -96.5q219 -182 219 -600q0 -117 -18 -221t-69 -209t-132 -172q-76 -63 -166.5 -96t-218.5 -33t-218.5 33t-166.5 96q-81 67 -132 172t-69 209t-18 221zM377 1681q6 64 43.5 132t77.5 100l452 -277 q-6 -45 -28.5 -85.5t-57.5 -61.5zM403 700q0 -75 5.5 -136t23 -129.5t46.5 -115t81.5 -77.5t122.5 -31t121.5 31t80.5 77.5t46.5 115t22.5 129.5t5 136q0 61 -4 113t-13.5 110.5t-29.5 103.5t-49.5 82.5t-75.5 58t-104 20.5q-59 0 -105 -20.5t-76 -58t-50 -82.5t-30 -103.5 t-14 -110.5t-4 -113z" />
<glyph unicode="&#xd3;" horiz-adv-x="1361" d="M78 700q0 418 219 600q76 63 166.5 96.5t218.5 33.5t218.5 -33.5t166.5 -96.5q219 -182 219 -600q0 -117 -18 -221t-69 -209t-132 -172q-76 -63 -166.5 -96t-218.5 -33t-218.5 33t-166.5 96q-81 67 -132 172t-69 209t-18 221zM403 700q0 -75 5.5 -136t23 -129.5 t46.5 -115t81.5 -77.5t122.5 -31t121.5 31t80.5 77.5t46.5 115t22.5 129.5t5 136q0 61 -4 113t-13.5 110.5t-29.5 103.5t-49.5 82.5t-75.5 58t-104 20.5q-59 0 -105 -20.5t-76 -58t-50 -82.5t-30 -103.5t-14 -110.5t-4 -113zM434 1636l453 277q40 -32 77.5 -100t43.5 -132 l-488 -192q-31 18 -56 62.5t-30 84.5z" />
<glyph unicode="&#xd4;" horiz-adv-x="1361" d="M78 700q0 418 219 600q76 63 166.5 96.5t218.5 33.5t218.5 -33.5t166.5 -96.5q219 -182 219 -600q0 -117 -18 -221t-69 -209t-132 -172q-76 -63 -166.5 -96t-218.5 -33t-218.5 33t-166.5 96q-81 67 -132 172t-69 209t-18 221zM309 1610l242 245q55 13 129.5 13.5 t126.5 -10.5l231 -226q-12 -42 -48.5 -77.5t-71.5 -49.5l-240 154l-244 -176q-34 12 -74.5 50.5t-50.5 76.5zM403 700q0 -75 5.5 -136t23 -129.5t46.5 -115t81.5 -77.5t122.5 -31t121.5 31t80.5 77.5t46.5 115t22.5 129.5t5 136q0 61 -4 113t-13.5 110.5t-29.5 103.5 t-49.5 82.5t-75.5 58t-104 20.5q-59 0 -105 -20.5t-76 -58t-50 -82.5t-30 -103.5t-14 -110.5t-4 -113z" />
<glyph unicode="&#xd5;" horiz-adv-x="1361" d="M78 700q0 418 219 600q76 63 166.5 96.5t218.5 33.5t218.5 -33.5t166.5 -96.5q219 -182 219 -600q0 -117 -18 -221t-69 -209t-132 -172q-76 -63 -166.5 -96t-218.5 -33t-218.5 33t-166.5 96q-81 67 -132 172t-69 209t-18 221zM256 1651l18 39q36 81 102.5 128.5 t151.5 47.5q64 0 136 -35l100 -47q38 -19 65 -19q39 0 78 50l21 24q45 0 90 -25.5t63 -64.5l-18 -41q-36 -80 -103 -128t-149 -48q-61 0 -137 37l-101 47q-36 18 -65 18q-38 0 -78 -49l-20 -26q-45 0 -91 26.5t-63 65.5zM403 700q0 -75 5.5 -136t23 -129.5t46.5 -115 t81.5 -77.5t122.5 -31t121.5 31t80.5 77.5t46.5 115t22.5 129.5t5 136q0 61 -4 113t-13.5 110.5t-29.5 103.5t-49.5 82.5t-75.5 58t-104 20.5q-59 0 -105 -20.5t-76 -58t-50 -82.5t-30 -103.5t-14 -110.5t-4 -113z" />
<glyph unicode="&#xd6;" horiz-adv-x="1361" d="M78 700q0 418 219 600q76 63 166.5 96.5t218.5 33.5t218.5 -33.5t166.5 -96.5q219 -182 219 -600q0 -117 -18 -221t-69 -209t-132 -172q-76 -63 -166.5 -96t-218.5 -33t-218.5 33t-166.5 96q-81 67 -132 172t-69 209t-18 221zM301 1640q0 66 25 101q49 33 116 33 q66 0 127 -33q25 -31 25 -101q0 -71 -25 -100q-58 -35 -127 -35t-116 35q-25 32 -25 100zM403 700q0 -75 5.5 -136t23 -129.5t46.5 -115t81.5 -77.5t122.5 -31t121.5 31t80.5 77.5t46.5 115t22.5 129.5t5 136q0 61 -4 113t-13.5 110.5t-29.5 103.5t-49.5 82.5t-75.5 58 t-104 20.5q-59 0 -105 -20.5t-76 -58t-50 -82.5t-30 -103.5t-14 -110.5t-4 -113zM766 1640q0 65 29 101q60 33 127 33q63 0 116 -33q25 -35 25 -101q0 -68 -25 -100q-51 -35 -116 -35q-69 0 -127 35q-29 33 -29 100z" />
<glyph unicode="&#xd7;" d="M121 369l160 157l86 84l-86 86l-160 158q25 58 74 104q53 53 104 74l160 -160l82 -86q13 12 27 26t31 31.5t28 28.5l155 160q58 -27 105 -74q49 -49 76 -104l-160 -160l-84 -84l84 -82l160 -159q-27 -58 -74 -105q-41 -43 -107 -74l-155 160l-86 84l-82 -84l-160 -160 q-49 23 -104 74q-55 59 -74 105z" />
<glyph unicode="&#xd8;" horiz-adv-x="1370" d="M78 700q0 183 52 342.5t169 257.5q154 130 385 130q135 0 238 -41l92 159q53 -8 106.5 -37t85.5 -69l-100 -176q98 -100 142 -249.5t44 -316.5q0 -115 -19.5 -220.5t-71 -210t-130.5 -171.5q-153 -129 -387 -129q-135 0 -238 41l-88 -153q-53 8 -107.5 37t-86.5 67 l96 172q-96 100 -139 250.5t-43 316.5zM389 700q0 -164 31 -268l385 737q-59 27 -121 27q-71 0 -125 -31t-85.5 -79t-51 -116t-26.5 -132t-7 -138zM563 229q57 -26 121 -26q295 0 295 497q0 156 -31 269z" />
<glyph unicode="&#xd9;" horiz-adv-x="1378" d="M139 514v885l15 12h114q93 0 139 -47.5t46 -149.5v-704q0 -148 55.5 -219.5t179.5 -71.5q125 0 180.5 71.5t55.5 219.5v889q61 12 153 12q101 0 160 -12v-885q0 -260 -143.5 -402.5t-405.5 -142.5q-261 0 -405 143t-144 402zM379 1681q6 64 43.5 132t77.5 100l452 -277 q-6 -45 -28.5 -85.5t-57.5 -61.5z" />
<glyph unicode="&#xda;" horiz-adv-x="1378" d="M139 514v885l15 12h114q93 0 139 -47.5t46 -149.5v-704q0 -148 55.5 -219.5t179.5 -71.5q125 0 180.5 71.5t55.5 219.5v889q61 12 153 12q101 0 160 -12v-885q0 -260 -143.5 -402.5t-405.5 -142.5q-261 0 -405 143t-144 402zM436 1636l453 277q40 -32 77.5 -100 t43.5 -132l-488 -192q-31 18 -56 62.5t-30 84.5z" />
<glyph unicode="&#xdb;" horiz-adv-x="1378" d="M139 514v885l15 12h114q93 0 139 -47.5t46 -149.5v-704q0 -148 55.5 -219.5t179.5 -71.5q125 0 180.5 71.5t55.5 219.5v889q61 12 153 12q101 0 160 -12v-885q0 -260 -143.5 -402.5t-405.5 -142.5q-261 0 -405 143t-144 402zM311 1610l242 245q55 13 129.5 13.5 t126.5 -10.5l231 -226q-12 -42 -48.5 -77.5t-71.5 -49.5l-240 154l-244 -176q-34 12 -74.5 50.5t-50.5 76.5z" />
<glyph unicode="&#xdc;" horiz-adv-x="1378" d="M139 514v885l15 12h114q93 0 139 -47.5t46 -149.5v-704q0 -148 55.5 -219.5t179.5 -71.5q125 0 180.5 71.5t55.5 219.5v889q61 12 153 12q101 0 160 -12v-885q0 -260 -143.5 -402.5t-405.5 -142.5q-261 0 -405 143t-144 402zM303 1640q0 66 25 101q50 33 116 33t127 -33 q25 -31 25 -101q0 -71 -25 -100q-58 -35 -127 -35t-116 35q-25 32 -25 100zM768 1640q0 65 29 101q61 33 127 33q63 0 116 -33q25 -35 25 -101q0 -68 -25 -100q-51 -35 -116 -35q-69 0 -127 35q-29 33 -29 100z" />
<glyph unicode="&#xdd;" horiz-adv-x="1077" d="M-14 1362q94 53 192 53q63 0 100 -29t64 -96l107 -266q47 -119 92 -289h12q35 142 98 299l146 365q52 12 127 12q89 0 153 -22l13 -19l-396 -938v-432q-61 -12 -155 -12q-99 0 -158 12v440zM297 1636l453 277q40 -32 77 -100t43 -132l-487 -192q-31 18 -56 62.5t-30 84.5 z" />
<glyph unicode="&#xde;" horiz-adv-x="1204" d="M160 0v1399q59 12 155 12q97 0 158 -12v-195q55 2 166 2q110 0 199.5 -26.5t157.5 -81t105.5 -144.5t37.5 -211q0 -154 -66 -259.5t-176.5 -154t-257.5 -48.5h-166v-281q-61 -12 -158 -12q-96 0 -155 12zM473 518q118 4 139 4q61 0 103.5 20t64 54t30.5 69.5t9 77.5 t-9 77.5t-30.5 70t-64 54.5t-103.5 20q-8 0 -56.5 1t-82.5 1v-449z" />
<glyph unicode="&#xdf;" horiz-adv-x="1337" d="M10 862q0 60 13 117l176 -2v47q0 198 131 304t356 106q224 0 361 -116t137 -310q0 -77 -35 -158q-65 -14 -100 -50t-35 -73q0 -40 47 -84l78 -76q145 -142 145 -276q0 -152 -113.5 -237t-296.5 -85q-61 0 -135 16t-133 44q2 51 26 114t58 97q81 -41 150 -41 q56 0 89.5 24.5t33.5 65.5q0 51 -64 112l-82 76q-65 61 -97 114.5t-32 115.5q0 67 48 134.5t132 104.5q4 40 4 60q0 81 -49 137.5t-137 56.5q-178 0 -178 -209v-991q-68 -12 -156 -12q-86 0 -153 12v745l-176 -2q-13 57 -13 119z" />
<glyph unicode="&#xe0;" horiz-adv-x="1048" d="M66 279q0 89 32.5 158.5t89.5 111.5t128 63t153 21q69 0 154 -6v45q0 135 -140 135q-42 0 -99.5 -11.5t-93.5 -21.5t-112 -33q-31 35 -50 93.5t-24 119.5q97 40 228.5 65t234.5 25q72 0 134 -19t114 -58.5t82.5 -109t30.5 -161.5v-417q0 -98 57 -138q-9 -41 -37.5 -87 t-58.5 -70q-142 6 -213 108q-130 -123 -301 -123q-61 0 -113 18.5t-87.5 49t-60.5 71t-36.5 84t-11.5 87.5zM215 1389q18 58 73 109t113 69l315 -342q-15 -40 -51 -73.5t-76 -45.5zM362 299q0 -44 28 -73t73 -29q81 0 160 67v170q-45 2 -123 2q-68 0 -103 -36.5t-35 -100.5z " />
<glyph unicode="&#xe1;" horiz-adv-x="1048" d="M66 279q0 89 32.5 158.5t89.5 111.5t128 63t153 21q69 0 154 -6v45q0 135 -140 135q-42 0 -99.5 -11.5t-93.5 -21.5t-112 -33q-31 35 -50 93.5t-24 119.5q97 40 228.5 65t234.5 25q72 0 134 -19t114 -58.5t82.5 -109t30.5 -161.5v-417q0 -98 57 -138q-9 -41 -37.5 -87 t-58.5 -70q-142 6 -213 108q-130 -123 -301 -123q-61 0 -113 18.5t-87.5 49t-60.5 71t-36.5 84t-11.5 87.5zM324 1225l315 342q58 -18 113.5 -69t72.5 -109l-374 -283q-39 12 -74.5 45t-52.5 74zM362 299q0 -44 28 -73t73 -29q81 0 160 67v170q-45 2 -123 2 q-68 0 -103 -36.5t-35 -100.5z" />
<glyph unicode="&#xe2;" horiz-adv-x="1048" d="M66 279q0 89 32.5 158.5t89.5 111.5t128 63t153 21q69 0 154 -6v45q0 135 -140 135q-42 0 -99.5 -11.5t-93.5 -21.5t-112 -33q-31 35 -50 93.5t-24 119.5q97 40 228.5 65t234.5 25q72 0 134 -19t114 -58.5t82.5 -109t30.5 -161.5v-417q0 -98 57 -138q-9 -41 -37.5 -87 t-58.5 -70q-142 6 -213 108q-130 -123 -301 -123q-61 0 -113 18.5t-87.5 49t-60.5 71t-36.5 84t-11.5 87.5zM184 1231l215 278q53 16 124.5 15t125.5 -15l190 -256q-17 -43 -57 -78t-76 -47l-188 179l-199 -193q-34 13 -72.5 44.5t-62.5 72.5zM362 299q0 -44 28 -73t73 -29 q81 0 160 67v170q-45 2 -123 2q-68 0 -103 -36.5t-35 -100.5z" />
<glyph unicode="&#xe3;" horiz-adv-x="1048" d="M66 279q0 89 32.5 158.5t89.5 111.5t128 63t153 21q69 0 154 -6v45q0 135 -140 135q-42 0 -99.5 -11.5t-93.5 -21.5t-112 -33q-31 35 -50 93.5t-24 119.5q97 40 228.5 65t234.5 25q72 0 134 -19t114 -58.5t82.5 -109t30.5 -161.5v-417q0 -98 57 -138q-9 -41 -37.5 -87 t-58.5 -70q-142 6 -213 108q-130 -123 -301 -123q-61 0 -113 18.5t-87.5 49t-60.5 71t-36.5 84t-11.5 87.5zM127 1253l16 39q35 81 96.5 128.5t138.5 47.5q61 0 127 -34l93 -48q32 -18 61 -18q37 0 72 49l18 25q42 0 84.5 -25.5t59.5 -64.5l-17 -41q-35 -80 -97 -128 t-138 -48q-57 0 -127 36l-93 48q-32 18 -61 18q-35 0 -72 -49l-18 -27q-43 0 -85.5 26.5t-57.5 65.5zM362 299q0 -44 28 -73t73 -29q81 0 160 67v170q-45 2 -123 2q-68 0 -103 -36.5t-35 -100.5z" />
<glyph unicode="&#xe4;" horiz-adv-x="1048" d="M66 279q0 89 32.5 158.5t89.5 111.5t128 63t153 21q69 0 154 -6v45q0 135 -140 135q-42 0 -99.5 -11.5t-93.5 -21.5t-112 -33q-31 35 -50 93.5t-24 119.5q97 40 228.5 65t234.5 25q72 0 134 -19t114 -58.5t82.5 -109t30.5 -161.5v-417q0 -98 57 -138q-9 -41 -37.5 -87 t-58.5 -70q-142 6 -213 108q-130 -123 -301 -123q-61 0 -113 18.5t-87.5 49t-60.5 71t-36.5 84t-11.5 87.5zM160 1274q0 56 18 98q54 33 127 33q71 0 129 -33q17 -47 17 -98q0 -54 -17 -98q-58 -33 -129 -33q-73 0 -127 33q-18 42 -18 98zM362 299q0 -44 28 -73t73 -29 q81 0 160 67v170q-45 2 -123 2q-68 0 -103 -36.5t-35 -100.5zM569 1274q0 51 17 98q58 33 129 33q73 0 127 -33q18 -42 18 -98q0 -58 -18 -98q-54 -33 -127 -33q-71 0 -129 33q-17 47 -17 98z" />
<glyph unicode="&#xe5;" horiz-adv-x="1048" d="M66 279q0 89 32.5 158.5t89.5 111.5t128 63t153 21q69 0 154 -6v45q0 135 -140 135q-42 0 -99.5 -11.5t-93.5 -21.5t-112 -33q-31 35 -50 93.5t-24 119.5q97 40 228.5 65t234.5 25q72 0 134 -19t114 -58.5t82.5 -109t30.5 -161.5v-417q0 -98 57 -138q-9 -41 -37.5 -87 t-58.5 -70q-142 6 -213 108q-130 -123 -301 -123q-61 0 -113 18.5t-87.5 49t-60.5 71t-36.5 84t-11.5 87.5zM227 1370q0 109 78.5 183.5t204.5 74.5t204.5 -74.5t78.5 -183.5q0 -110 -78.5 -185t-204.5 -75t-204.5 75t-78.5 185zM362 299q0 -44 28 -73t73 -29q81 0 160 67 v170q-45 2 -123 2q-68 0 -103 -36.5t-35 -100.5zM410 1370q0 -45 27.5 -74.5t72.5 -29.5t72.5 29.5t27.5 74.5q0 44 -27.5 74.5t-72.5 30.5t-72.5 -30.5t-27.5 -74.5z" />
<glyph unicode="&#xe6;" horiz-adv-x="1554" d="M66 281q0 89 32.5 157.5t89.5 110.5t128 63t153 21q71 0 154 -6v45q0 135 -138 135q-101 0 -307 -66q-31 35 -50 93.5t-24 119.5q98 40 221.5 65t219.5 25q163 0 254 -98q111 105 270 105q196 0 308 -122.5t112 -312.5q0 -110 -25 -204h-536q7 -99 48 -153t140 -54 q113 0 264 63q32 -32 54 -82.5t28 -99.5q-76 -55 -182 -86t-215 -31q-222 0 -338 150q-150 -150 -352 -150q-76 0 -137 27.5t-97.5 72.5t-55.5 99.5t-19 112.5zM362 299q0 -44 28 -73t73 -29q100 0 184 90q-19 72 -22 145q-45 4 -125 4q-68 0 -103 -36.5t-35 -100.5z M926 623h280v22q0 84 -33 136.5t-106 52.5q-70 0 -102.5 -51t-38.5 -160z" />
<glyph unicode="&#xe7;" horiz-adv-x="970" d="M66 508q0 114 26 207t69.5 154.5t102.5 103t123 60t133 18.5q174 0 284.5 -94.5t110.5 -241.5q0 -74 -40 -112t-109 -38q-76 0 -125 10q2 130 -23 189t-104 59q-74 0 -105.5 -74.5t-31.5 -240.5q0 -161 45.5 -230t140.5 -69q99 0 228 88q36 -21 70.5 -73t45.5 -97 q-58 -61 -143.5 -101.5t-179.5 -52.5q-12 -18 -19 -39q94 -6 149.5 -56.5t55.5 -125.5q0 -100 -77.5 -162.5t-200.5 -62.5q-49 0 -98.5 13.5t-76.5 33.5q4 80 50 133q46 -26 96 -26q38 0 58 16.5t20 44.5t-19.5 45.5t-50.5 17.5q-19 0 -43 -8q-31 14 -45 45q20 74 43 133 q-175 29 -267.5 170.5t-92.5 362.5z" />
<glyph unicode="&#xe8;" horiz-adv-x="1017" d="M66 504q0 119 26 216.5t79.5 172.5t142 116.5t206.5 41.5q196 0 310 -122.5t114 -312.5q0 -106 -26 -204h-543q7 -98 49.5 -152.5t142.5 -54.5q119 0 267 63q64 -62 84 -182q-77 -55 -184.5 -86t-217.5 -31q-103 0 -182.5 30t-129 79.5t-81.5 120t-44.5 145t-12.5 160.5z M228 1389q18 58 73 109t113 69l315 -342q-15 -40 -51 -73.5t-76 -45.5zM373 623h289v24q0 82 -35.5 134.5t-108.5 52.5q-71 0 -105 -51.5t-40 -159.5z" />
<glyph unicode="&#xe9;" horiz-adv-x="1017" d="M66 504q0 119 26 216.5t79.5 172.5t142 116.5t206.5 41.5q196 0 310 -122.5t114 -312.5q0 -106 -26 -204h-543q7 -98 49.5 -152.5t142.5 -54.5q119 0 267 63q64 -62 84 -182q-77 -55 -184.5 -86t-217.5 -31q-103 0 -182.5 30t-129 79.5t-81.5 120t-44.5 145t-12.5 160.5z M336 1225l315 342q58 -18 114 -69t73 -109l-375 -283q-39 12 -74.5 45t-52.5 74zM373 623h289v24q0 82 -35.5 134.5t-108.5 52.5q-71 0 -105 -51.5t-40 -159.5z" />
<glyph unicode="&#xea;" horiz-adv-x="1017" d="M66 504q0 119 26 216.5t79.5 172.5t142 116.5t206.5 41.5q196 0 310 -122.5t114 -312.5q0 -106 -26 -204h-543q7 -98 49.5 -152.5t142.5 -54.5q119 0 267 63q64 -62 84 -182q-77 -55 -184.5 -86t-217.5 -31q-103 0 -182.5 30t-129 79.5t-81.5 120t-44.5 145t-12.5 160.5z M197 1231l215 278q53 16 124.5 15t125.5 -15l190 -256q-17 -43 -57 -78t-76 -47l-188 179l-199 -193q-34 13 -72.5 44.5t-62.5 72.5zM373 623h289v24q0 82 -35.5 134.5t-108.5 52.5q-71 0 -105 -51.5t-40 -159.5z" />
<glyph unicode="&#xeb;" horiz-adv-x="1017" d="M66 504q0 119 26 216.5t79.5 172.5t142 116.5t206.5 41.5q196 0 310 -122.5t114 -312.5q0 -106 -26 -204h-543q7 -98 49.5 -152.5t142.5 -54.5q119 0 267 63q64 -62 84 -182q-77 -55 -184.5 -86t-217.5 -31q-103 0 -182.5 30t-129 79.5t-81.5 120t-44.5 145t-12.5 160.5z M172 1274q0 56 18 98q54 33 127 33q71 0 129 -33q17 -47 17 -98q0 -54 -17 -98q-58 -33 -129 -33q-73 0 -127 33q-18 42 -18 98zM373 623h289v24q0 82 -35.5 134.5t-108.5 52.5q-71 0 -105 -51.5t-40 -159.5zM582 1274q0 54 16 98q58 33 129 33q73 0 127 -33q18 -42 18 -98 q0 -58 -18 -98q-54 -33 -127 -33q-71 0 -129 33q-16 44 -16 98z" />
<glyph unicode="&#xec;" horiz-adv-x="587" d="M-29 1389q18 58 73.5 109t113.5 69l315 -342q-15 -40 -51 -73.5t-76 -45.5zM23 909q0 57 12 109q102 10 174 10h41q100 0 157.5 -63t57.5 -172v-793q-61 -12 -152 -12q-86 0 -153 12v688q0 117 -97 117h-28q-12 53 -12 104z" />
<glyph unicode="&#xed;" horiz-adv-x="587" d="M23 909q0 57 12 109q102 10 174 10h41q100 0 157.5 -63t57.5 -172v-793q-61 -12 -152 -12q-86 0 -153 12v688q0 117 -97 117h-28q-12 53 -12 104zM82 1225l315 342q58 -18 114 -69t73 -109l-375 -283q-39 12 -74.5 45t-52.5 74z" />
<glyph unicode="&#xee;" horiz-adv-x="587" d="M-57 1231l215 278q53 16 124.5 15t125.5 -15l190 -256q-17 -43 -57 -78t-76 -47l-189 179l-198 -193q-34 13 -72.5 44.5t-62.5 72.5zM23 909q0 57 12 109q102 10 174 10h41q100 0 157.5 -63t57.5 -172v-793q-61 -12 -152 -12q-86 0 -153 12v688q0 117 -97 117h-28 q-12 53 -12 104z" />
<glyph unicode="&#xef;" horiz-adv-x="587" d="M-82 1274q0 53 19 98q54 33 126 33t130 -33q16 -44 16 -98q0 -57 -16 -98q-58 -33 -130 -33t-126 33q-19 45 -19 98zM23 909q0 57 12 109q102 10 174 10h41q100 0 157.5 -63t57.5 -172v-793q-61 -12 -152 -12q-86 0 -153 12v688q0 117 -97 117h-28q-12 53 -12 104z M328 1274q0 54 16 98q58 33 129 33q73 0 127 -33q18 -42 18 -98q0 -58 -18 -98q-54 -33 -127 -33q-71 0 -129 33q-16 44 -16 98z" />
<glyph unicode="&#xf0;" horiz-adv-x="1062" d="M63 498q0 255 148 391q121 108 295 108q45 0 88 -16q-39 91 -127 176l-188 -129q-34 24 -62 63t-37 78l150 103q-56 40 -131 84q6 54 41.5 109t76.5 75q122 -52 226 -121l174 119q33 -24 60.5 -62.5t37.5 -78.5l-131 -90q315 -303 315 -797q0 -277 -147 -420 q-121 -121 -322 -121q-200 0 -321 121q-146 142 -146 408zM375 492q0 -65 6 -113t21.5 -93t47.5 -69t80 -24t80.5 24.5t48.5 71t22.5 98.5t6.5 123q0 144 -22 231q-70 39 -131 39q-87 0 -123.5 -73t-36.5 -215z" />
<glyph unicode="&#xf1;" horiz-adv-x="1120" d="M127 0v1020l14 14h115q126 0 162 -123q148 127 295 127q137 0 210.5 -98.5t73.5 -261.5v-426q0 -131 50 -203q-79 -65 -191 -65q-89 0 -126.5 47t-37.5 143v447q0 77 -20 111t-72 34q-38 0 -83.5 -20.5t-84.5 -59.5v-686q-64 -12 -151 -12q-86 0 -154 12zM190 1253l17 39 q35 81 96.5 128.5t138.5 47.5q61 0 127 -34l93 -48q32 -18 61 -18q37 0 72 49l18 25q42 0 84 -25.5t59 -64.5l-16 -41q-35 -80 -97 -128t-138 -48q-57 0 -127 36l-93 48q-32 18 -61 18q-35 0 -72 -49l-18 -27q-43 0 -86 26.5t-58 65.5z" />
<glyph unicode="&#xf2;" horiz-adv-x="1069" d="M66 510q0 139 34 241t113 181q122 119 322 119q199 0 321 -119q79 -79 113.5 -181.5t34.5 -240.5t-34.5 -239.5t-113.5 -180.5q-121 -121 -321 -121q-201 0 -322 121q-79 79 -113 180.5t-34 239.5zM238 1389q18 58 73 109t113 69l315 -342q-15 -40 -51 -73.5t-76 -45.5z M379 510q0 -71 6 -122t22 -96.5t48 -69t80 -23.5q39 0 67 16.5t45 43t26.5 68.5t13 84.5t3.5 98.5q0 72 -6 123t-21.5 97t-47.5 69.5t-80 23.5t-80 -23.5t-48 -69.5t-22 -97.5t-6 -122.5z" />
<glyph unicode="&#xf3;" horiz-adv-x="1069" d="M66 510q0 139 34 241t113 181q122 119 322 119q199 0 321 -119q79 -79 113.5 -181.5t34.5 -240.5t-34.5 -239.5t-113.5 -180.5q-121 -121 -321 -121q-201 0 -322 121q-79 79 -113 180.5t-34 239.5zM346 1225l316 342q58 -18 113.5 -69t72.5 -109l-375 -283 q-39 12 -74.5 45t-52.5 74zM379 510q0 -71 6 -122t22 -96.5t48 -69t80 -23.5q39 0 67 16.5t45 43t26.5 68.5t13 84.5t3.5 98.5q0 72 -6 123t-21.5 97t-47.5 69.5t-80 23.5t-80 -23.5t-48 -69.5t-22 -97.5t-6 -122.5z" />
<glyph unicode="&#xf4;" horiz-adv-x="1069" d="M66 510q0 139 34 241t113 181q122 119 322 119q199 0 321 -119q79 -79 113.5 -181.5t34.5 -240.5t-34.5 -239.5t-113.5 -180.5q-121 -121 -321 -121q-201 0 -322 121q-79 79 -113 180.5t-34 239.5zM209 1231l215 278q53 16 124.5 15t125.5 -15l190 -256q-17 -43 -57 -78 t-76 -47l-188 179l-199 -193q-34 13 -72.5 44.5t-62.5 72.5zM379 510q0 -71 6 -122t22 -96.5t48 -69t80 -23.5q39 0 67 16.5t45 43t26.5 68.5t13 84.5t3.5 98.5q0 72 -6 123t-21.5 97t-47.5 69.5t-80 23.5t-80 -23.5t-48 -69.5t-22 -97.5t-6 -122.5z" />
<glyph unicode="&#xf5;" horiz-adv-x="1069" d="M66 510q0 139 34 241t113 181q122 119 322 119q199 0 321 -119q79 -79 113.5 -181.5t34.5 -240.5t-34.5 -239.5t-113.5 -180.5q-121 -121 -321 -121q-201 0 -322 121q-79 79 -113 180.5t-34 239.5zM152 1253l16 39q35 81 96.5 128.5t138.5 47.5q61 0 127 -34l93 -48 q32 -18 61 -18q37 0 72 49l18 25q42 0 84.5 -25.5t59.5 -64.5l-17 -41q-35 -80 -97 -128t-138 -48q-57 0 -127 36l-93 48q-32 18 -61 18q-35 0 -72 -49l-18 -27q-43 0 -85.5 26.5t-57.5 65.5zM379 510q0 -71 6 -122t22 -96.5t48 -69t80 -23.5q39 0 67 16.5t45 43t26.5 68.5 t13 84.5t3.5 98.5q0 72 -6 123t-21.5 97t-47.5 69.5t-80 23.5t-80 -23.5t-48 -69.5t-22 -97.5t-6 -122.5z" />
<glyph unicode="&#xf6;" horiz-adv-x="1069" d="M66 510q0 139 34 241t113 181q122 119 322 119q199 0 321 -119q79 -79 113.5 -181.5t34.5 -240.5t-34.5 -239.5t-113.5 -180.5q-121 -121 -321 -121q-201 0 -322 121q-79 79 -113 180.5t-34 239.5zM184 1274q0 53 19 98q54 33 127 33q71 0 129 -33q16 -44 16 -98 q0 -57 -16 -98q-58 -33 -129 -33q-73 0 -127 33q-19 45 -19 98zM379 510q0 -71 6 -122t22 -96.5t48 -69t80 -23.5q39 0 67 16.5t45 43t26.5 68.5t13 84.5t3.5 98.5q0 72 -6 123t-21.5 97t-47.5 69.5t-80 23.5t-80 -23.5t-48 -69.5t-22 -97.5t-6 -122.5zM594 1274q0 54 16 98 q58 33 129 33q73 0 127 -33q19 -45 19 -98q0 -56 -19 -98q-54 -33 -127 -33q-71 0 -129 33q-16 44 -16 98z" />
<glyph unicode="&#xf7;" d="M96 610q0 69 13 125h868q12 -52 12 -125q0 -72 -12 -121h-868q-13 53 -13 121zM389 244q0 55 21 106q60 29 133 29q78 0 131 -29q22 -46 22 -106q0 -59 -22 -105q-51 -28 -131 -28q-85 0 -133 28q-21 51 -21 105zM389 977q0 53 21 104q57 31 133 31q81 0 131 -31 q22 -46 22 -104q0 -59 -22 -105q-45 -28 -131 -28q-85 0 -133 28q-21 51 -21 105z" />
<glyph unicode="&#xf8;" horiz-adv-x="1075" d="M70 512q0 277 143 420q122 119 324 119q95 0 174 -27l69 121q98 -25 154 -84l-74 -129q146 -143 146 -420q0 -283 -146 -422q-118 -121 -323 -121q-100 0 -177 29l-69 -121q-98 21 -154 86l74 127q-141 141 -141 422zM352 512q0 -89 10 -145l240 456q-29 13 -63 13 q-57 0 -95.5 -26t-57.5 -75t-26.5 -101.5t-7.5 -121.5zM471 199q32 -13 68 -13q56 0 94 26.5t57 75.5t26 102t7 122q0 89 -10 145z" />
<glyph unicode="&#xf9;" horiz-adv-x="1124" d="M74 971q75 65 190 65q89 0 126.5 -46.5t37.5 -141.5v-449q0 -76 20 -109.5t72 -33.5q37 0 82 19.5t84 56.5v688q64 12 154 12q86 0 153 -12v-729q0 -112 58 -154q-9 -40 -37.5 -84.5t-59.5 -68.5q-163 6 -233 143q-156 -145 -313 -145q-137 0 -211 99t-74 261v428 q0 130 -49 201zM248 1389q18 58 73 109t113 69l315 -342q-15 -40 -51 -73.5t-76 -45.5z" />
<glyph unicode="&#xfa;" horiz-adv-x="1124" d="M74 971q75 65 190 65q89 0 126.5 -46.5t37.5 -141.5v-449q0 -76 20 -109.5t72 -33.5q37 0 82 19.5t84 56.5v688q64 12 154 12q86 0 153 -12v-729q0 -112 58 -154q-9 -40 -37.5 -84.5t-59.5 -68.5q-163 6 -233 143q-156 -145 -313 -145q-137 0 -211 99t-74 261v428 q0 130 -49 201zM356 1225l316 342q58 -18 113.5 -69t72.5 -109l-375 -283q-39 12 -74.5 45t-52.5 74z" />
<glyph unicode="&#xfb;" horiz-adv-x="1124" d="M74 971q75 65 190 65q89 0 126.5 -46.5t37.5 -141.5v-449q0 -76 20 -109.5t72 -33.5q37 0 82 19.5t84 56.5v688q64 12 154 12q86 0 153 -12v-729q0 -112 58 -154q-9 -40 -37.5 -84.5t-59.5 -68.5q-163 6 -233 143q-156 -145 -313 -145q-137 0 -211 99t-74 261v428 q0 130 -49 201zM219 1231l215 278q53 16 124.5 15t125.5 -15l190 -256q-17 -43 -57 -78t-76 -47l-188 179l-199 -193q-34 13 -72.5 44.5t-62.5 72.5z" />
<glyph unicode="&#xfc;" horiz-adv-x="1124" d="M74 971q75 65 190 65q89 0 126.5 -46.5t37.5 -141.5v-449q0 -76 20 -109.5t72 -33.5q37 0 82 19.5t84 56.5v688q64 12 154 12q86 0 153 -12v-729q0 -112 58 -154q-9 -40 -37.5 -84.5t-59.5 -68.5q-163 6 -233 143q-156 -145 -313 -145q-137 0 -211 99t-74 261v428 q0 130 -49 201zM195 1274q0 56 18 98q54 33 127 33q71 0 129 -33q16 -44 16 -98q0 -57 -16 -98q-58 -33 -129 -33q-73 0 -127 33q-18 42 -18 98zM604 1274q0 51 17 98q58 33 129 33q73 0 127 -33q18 -42 18 -98q0 -58 -18 -98q-54 -33 -127 -33q-71 0 -129 33q-17 47 -17 98 z" />
<glyph unicode="&#xfd;" horiz-adv-x="1009" d="M4 -408q-5 54 13.5 119.5t48.5 98.5q111 -31 180 -31q154 0 207 178l8 29q-84 2 -135.5 31t-69.5 96l-244 884q89 41 189 41q59 0 94 -29t53 -102l103 -405q19 -68 49 -273q2 -14 18 -14l184 805q52 12 121 12q97 0 164 -22l10 -21l-256 -960q-31 -117 -66.5 -197 t-92 -147.5t-140 -100.5t-196.5 -33q-56 0 -126.5 13t-115.5 28zM315 1225l315 342q58 -18 114 -69t73 -109l-375 -283q-39 12 -74.5 45t-52.5 74z" />
<glyph unicode="&#xfe;" horiz-adv-x="1091" d="M127 -428v1921l14 14h115q91 0 128.5 -41.5t37.5 -142.5v-367q104 84 235 84q112 0 196 -65t127.5 -177.5t43.5 -256.5q0 -113 -22.5 -207t-60.5 -158.5t-89.5 -109.5t-108.5 -65.5t-118 -20.5q-101 0 -203 45v-283q0 -101 -37.5 -142.5t-128.5 -41.5h-115zM422 258 q84 -51 141 -51q74 0 112 81.5t38 231.5q0 140 -37 208.5t-96 68.5q-91 0 -158 -86v-453z" />
<glyph unicode="&#xff;" horiz-adv-x="1009" d="M4 -408q-5 54 13.5 119.5t48.5 98.5q111 -31 180 -31q154 0 207 178l8 29q-84 2 -135.5 31t-69.5 96l-244 884q89 41 189 41q59 0 94 -29t53 -102l103 -405q19 -68 49 -273q2 -14 18 -14l184 805q52 12 121 12q97 0 164 -22l10 -21l-256 -960q-31 -117 -66.5 -197 t-92 -147.5t-140 -100.5t-196.5 -33q-56 0 -126.5 13t-115.5 28zM152 1274q0 56 18 98q54 33 127 33q71 0 129 -33q16 -44 16 -98q0 -57 -16 -98q-58 -33 -129 -33q-73 0 -127 33q-18 42 -18 98zM561 1274q0 51 17 98q58 33 129 33q73 0 127 -33q18 -42 18 -98 q0 -58 -18 -98q-54 -33 -127 -33q-71 0 -129 33q-17 47 -17 98z" />
<glyph unicode="&#x152;" horiz-adv-x="1871" d="M78 700q0 183 52 342.5t169 257.5q157 130 387 130q92 0 291 -31h788q13 -61 13 -123q0 -60 -27 -139h-428h-139q0 -28 1 -74t1 -72v-162q53 2 137 2h324q18 -59 18 -129q0 -66 -18 -127h-324h-137v-178q0 -25 -1 -69.5t-1 -71.5v-2q90 4 149 4h484q0 -68 -7 -111 q-24 -151 -198 -151h-639q-203 -27 -287 -27q-231 0 -387 129q-117 98 -169 259t-52 343zM399 700q0 -489 285 -489q85 0 199 31v915q-114 31 -197 31q-287 0 -287 -488z" />
<glyph unicode="&#x153;" horiz-adv-x="1646" d="M66 510q0 140 33.5 241.5t113.5 180.5q122 119 322 119t315 -131q105 131 309 131q197 0 309.5 -122.5t112.5 -312.5q0 -98 -25 -204h-538q7 -98 48.5 -152.5t139.5 -54.5q116 0 264 63q64 -61 84 -180q-76 -56 -181.5 -87.5t-215.5 -31.5q-211 0 -313 123 q-113 -123 -309 -123q-201 0 -322 121q-80 76 -113.5 178.5t-33.5 241.5zM379 510q0 -71 6 -122t22 -96.5t48 -69t80 -23.5q39 0 67 16.5t45 43t26.5 68.5t13 84.5t3.5 98.5q0 72 -6 123t-21.5 97t-47.5 69.5t-80 23.5t-80 -23.5t-48 -69.5t-22 -97.5t-6 -122.5zM1016 623 h282v22q0 84 -33.5 136.5t-105.5 52.5q-70 0 -103.5 -51.5t-39.5 -159.5z" />
<glyph unicode="&#x178;" horiz-adv-x="1077" d="M-14 1362q94 53 192 53q63 0 100 -29t64 -96l107 -266q47 -119 92 -289h12q35 142 98 299l146 365q52 12 127 12q89 0 153 -22l13 -19l-396 -938v-432q-61 -12 -155 -12q-99 0 -158 12v440zM164 1640q0 68 24 101q49 33 117 33q67 0 127 -33q25 -31 25 -101 q0 -71 -25 -100q-58 -35 -127 -35q-70 0 -117 35q-24 31 -24 100zM629 1640q0 66 28 101q60 33 127 33q64 0 117 -33q25 -35 25 -101q0 -68 -25 -100q-51 -35 -117 -35q-69 0 -127 35q-28 32 -28 100z" />
<glyph unicode="&#x2c6;" horiz-adv-x="815" d="M82 1231l215 278q53 16 124.5 15t125.5 -15l190 -256q-17 -43 -57 -78t-76 -47l-188 179l-199 -193q-34 13 -72.5 44.5t-62.5 72.5z" />
<glyph unicode="&#x2dc;" horiz-adv-x="815" d="M25 1253l16 39q35 81 96.5 128.5t138.5 47.5q61 0 127 -34l93 -48q32 -18 61 -18q37 0 72 49l18 25q42 0 84.5 -25.5t59.5 -64.5l-17 -41q-35 -80 -97 -128t-138 -48q-57 0 -127 36l-93 48q-32 18 -61 18q-35 0 -72 -49l-18 -27q-43 0 -85.5 26.5t-57.5 65.5z" />
<glyph unicode="&#x2000;" horiz-adv-x="957" />
<glyph unicode="&#x2001;" horiz-adv-x="1915" />
<glyph unicode="&#x2002;" horiz-adv-x="957" />
<glyph unicode="&#x2003;" horiz-adv-x="1915" />
<glyph unicode="&#x2004;" horiz-adv-x="638" />
<glyph unicode="&#x2005;" horiz-adv-x="478" />
<glyph unicode="&#x2006;" horiz-adv-x="319" />
<glyph unicode="&#x2007;" horiz-adv-x="319" />
<glyph unicode="&#x2008;" horiz-adv-x="239" />
<glyph unicode="&#x2009;" horiz-adv-x="383" />
<glyph unicode="&#x200a;" horiz-adv-x="106" />
<glyph unicode="&#x2010;" horiz-adv-x="763" d="M86 551q0 74 12 123h568q12 -49 12 -123t-12 -123h-568q-12 49 -12 123z" />
<glyph unicode="&#x2011;" horiz-adv-x="763" d="M86 551q0 74 12 123h568q12 -49 12 -123t-12 -123h-568q-12 49 -12 123z" />
<glyph unicode="&#x2012;" horiz-adv-x="763" d="M86 551q0 74 12 123h568q12 -49 12 -123t-12 -123h-568q-12 49 -12 123z" />
<glyph unicode="&#x2013;" horiz-adv-x="1130" d="M115 545q0 69 14 117h875q14 -48 14 -117t-14 -117h-875q-14 48 -14 117z" />
<glyph unicode="&#x2014;" horiz-adv-x="1665" d="M139 545q0 66 15 117h1359q13 -53 13 -117t-13 -117h-1359q-15 51 -15 117z" />
<glyph unicode="&#x2018;" horiz-adv-x="538" d="M80 1194q0 147 87 262.5t253 163.5q38 -19 56 -58.5t13 -82.5q-62 -19 -115.5 -65t-56.5 -109q75 -13 95 -29q22 -46 22 -117q0 -77 -22 -123q-28 -15 -72.5 -26t-81.5 -11q-38 0 -82.5 11t-69.5 26q-26 66 -26 158z" />
<glyph unicode="&#x2019;" horiz-adv-x="538" d="M49 1141q64 22 115.5 66.5t54.5 107.5q-70 13 -92 28q-23 48 -23 117q0 82 23 123q27 15 71 26t83 11q40 0 83.5 -10t67.5 -27q27 -77 27 -158q0 -147 -87.5 -262t-254.5 -164q-37 20 -55 59.5t-13 82.5z" />
<glyph unicode="&#x201a;" horiz-adv-x="538" d="M45 -193q64 22 116.5 67t55.5 108q-70 13 -92 28q-23 41 -23 117q0 82 23 123q27 15 71 26t83 11q37 0 80.5 -11t70.5 -26q25 -71 25 -158q0 -147 -87 -262t-253 -164q-37 19 -55 58.5t-15 82.5z" />
<glyph unicode="&#x201c;" horiz-adv-x="1007" d="M74 1194q0 147 87 262.5t253 163.5q38 -19 56 -58.5t13 -82.5q-62 -19 -115.5 -65t-56.5 -109q75 -13 95 -29q22 -46 22 -117q0 -77 -22 -123q-28 -15 -72.5 -26t-81.5 -11q-38 0 -82.5 11t-69.5 26q-26 66 -26 158zM545 1194q0 147 87 262.5t253 163.5q38 -19 56 -58.5 t13 -82.5q-62 -19 -115.5 -65t-56.5 -109q75 -13 95 -29q22 -46 22 -117q0 -77 -22 -123q-28 -15 -72.5 -26t-81.5 -11q-38 0 -82.5 11t-69.5 26q-26 66 -26 158z" />
<glyph unicode="&#x201d;" horiz-adv-x="1007" d="M57 1141q64 22 115.5 66.5t54.5 107.5q-70 13 -92 28q-22 46 -22 117q0 84 22 123q27 15 71 26t83 11q40 0 83.5 -10t67.5 -27q27 -77 27 -158q0 -147 -87.5 -262t-254.5 -164q-37 20 -55 59.5t-13 82.5zM528 1141q64 22 115.5 66.5t54.5 107.5q-70 13 -92 28 q-22 46 -22 117q0 84 22 123q27 15 71 26t83 11q40 0 83.5 -10t67.5 -27q27 -77 27 -158q0 -147 -87.5 -262t-254.5 -164q-37 20 -55 59.5t-13 82.5z" />
<glyph unicode="&#x201e;" horiz-adv-x="1007" d="M45 -193q64 22 116.5 67t55.5 108q-70 13 -92 28q-23 41 -23 117q0 82 23 123q27 15 71 26t83 11q37 0 80.5 -11t70.5 -26q25 -71 25 -158q0 -147 -87 -262t-253 -164q-37 19 -55 58.5t-15 82.5zM516 -193q64 22 116.5 67t55.5 108q-70 13 -92 28q-23 41 -23 117 q0 82 23 123q27 15 71 26t83 11q38 0 81 -11t70 -26q25 -71 25 -158q0 -147 -87 -262t-253 -164q-37 19 -55 58.5t-15 82.5z" />
<glyph unicode="&#x2022;" horiz-adv-x="942" d="M199 549q0 43 9 102t28 97q43 27 109 43t128 16t129.5 -16t110.5 -43q17 -38 26 -99t9 -100q0 -38 -9 -99.5t-26 -99.5q-83 -55 -240 -55q-154 0 -237 55q-19 38 -28 97.5t-9 101.5z" />
<glyph unicode="&#x202f;" horiz-adv-x="383" />
<glyph unicode="&#x2039;" horiz-adv-x="710" d="M48 522q0 53 15 88l410 385q50 -11 100.5 -58.5t63.5 -96.5l-254 -312l262 -319q-13 -47 -65.5 -94.5t-102.5 -59.5l-414 379q-15 35 -15 88z" />
<glyph unicode="&#x203a;" horiz-adv-x="710" d="M66 842q13 47 65 94.5t102 58.5l414 -379q15 -35 15 -87t-15 -87l-409 -387q-50 12 -100 60t-64 96l254 313z" />
<glyph unicode="&#x205f;" horiz-adv-x="478" />
<glyph unicode="&#x20ac;" horiz-adv-x="1148" d="M16 498q0 54 13 96h147q-2 23 -2 68q0 44 2 69h-147q-13 40 -13 94q0 53 13 97h168q85 436 473 436q125 0 245 -48t218 -130q-8 -51 -44 -104t-83 -79q-66 52 -144.5 83.5t-150.5 31.5q-82 0 -133 -47t-76 -143h344q10 -51 10 -97q0 -48 -10 -94h-369v-72v-65h369 q10 -49 10 -96q0 -49 -10 -95h-344q25 -95 76 -141.5t133 -46.5q72 0 150 31.5t145 81.5q51 -28 85 -78t42 -103q-97 -82 -217.5 -130t-245.5 -48q-107 0 -191 33.5t-139.5 94.5t-89.5 136.5t-53 169.5h-168q-13 40 -13 95z" />
<glyph unicode="&#x25fc;" horiz-adv-x="1044" d="M0 0v1044h1044v-1044h-1044z" />
</font>
</defs>
</svg>
