<?xml version="1.0" encoding="utf-8"?>
<!-- Generator: Adobe Illustrator 15.0.0, SVG Export Plug-In . SVG Version: 6.00 Build 0)  -->
<!DOCTYPE svg PUBLIC "-//W3C//DTD SVG 1.1//EN" "http://www.w3.org/Graphics/SVG/1.1/DTD/svg11.dtd">
<svg version="1.1" id="Layer_1" xmlns="http://www.w3.org/2000/svg" xmlns:xlink="http://www.w3.org/1999/xlink" x="0px" y="0px"
	 width="1920px" height="1080px" viewBox="0 0 1920 1080" enable-background="new 0 0 1920 1080" xml:space="preserve">
<rect fill="#6B919E" width="1920" height="1080"/>
<path fill="#FCFCFC" d="M783.603,595.106c-7.418-8.126-11.305-19.077-11.305-33.911c0-13.776,1.768-27.551,5.654-40.621
	c3.53-13.07,8.829-25.082,15.189-34.971c6.358-10.244,13.774-18.369,22.604-24.374c8.832-6.003,18.017-9.185,28.261-9.185
	c12.011,0,21.899,4.241,29.316,12.366c7.417,8.121,10.952,19.073,10.952,32.145c0,13.422-1.767,26.493-5.653,39.917
	c-3.531,13.062-8.83,25.072-15.187,35.67c-6.361,10.6-14.13,19.081-22.606,25.438c-8.833,6.359-18.015,9.888-27.91,9.888
	C800.911,607.116,791.022,603.23,783.603,595.106 M784.662,428.026c-14.835,8.479-27.554,19.075-38.146,32.851
	c-10.6,13.778-19.077,29.317-24.729,46.981c-5.651,17.662-8.829,35.679-8.829,54.396c0,12.006,1.764,22.605,5.299,32.852
	c3.53,9.892,8.831,18.367,15.189,25.784c6.358,7.423,14.481,13.067,24.019,16.953c9.536,3.887,19.78,6.008,31.437,6.008
	c14.838,0,28.26-3.532,40.269-10.593c12.011-7.065,22.606-16.25,31.438-27.553c0,25.435,15.543,38.146,46.979,38.146
	c6.712,0,13.069-0.705,19.072-1.764c5.654-1.06,11.659-2.479,17.666-3.887l8.831-32.852c-3.179,1.06-6.006,2.118-8.479,2.472
	c-2.472,0.352-4.946,0.706-8.125,0.706c-9.182,0-13.775-4.588-13.775-14.129c0-4.591,1.063-11.309,3.534-19.776
	c2.472-8.481,4.943-18.021,8.122-28.969l33.909-128.223c-4.588,1.411-9.891,2.474-15.896,3.179
	c-6.354,0.703-13.419,1.059-21.191,1.059h-22.256l-11.655,41.685c-3.887-15.194-11.304-26.847-22.252-35.326
	c-10.952-8.122-24.728-12.36-41.684-12.36C815.746,415.31,799.5,419.549,784.662,428.026 M1297.909,602.883
	c-4.943-2.479-9.187-5.659-13.067-9.893c-3.53-3.886-6.361-8.837-8.13-14.134c-1.767-5.293-2.823-10.949-2.823-16.602
	c0-13.423,1.765-26.49,5.303-39.917c3.526-13.419,8.12-25.079,14.484-35.676c6.355-10.595,13.416-19.072,21.894-25.433
	c8.481-6.358,17.661-9.889,27.911-9.889c12.01,0,21.897,3.886,29.316,12.012c7.417,8.121,11.299,19.073,11.654,33.906
	c0,13.778-1.764,27.553-5.299,40.624c-3.538,13.423-8.479,24.722-14.833,34.972c-6.366,10.235-13.778,18.012-22.256,24.018
	c-8.478,6.011-17.309,9.186-26.842,9.186C1308.86,606.765,1303.206,605.35,1297.909,602.883 M1330.407,424.848
	c-10.947,6.36-20.838,14.481-29.671,24.375l8.833-32.5c-5.303,1.06-12.717,2.119-22.258,3.182
	c-9.536,0.705-19.778,1.408-30.726,1.408h-39.918l-8.832,33.207h25.434c2.827,0,4.237,1.061,5.294,2.826
	c0.712,1.765,0.36,5.299-1.057,10.597l-55.102,201.347c-1.416,4.942-2.827,8.117-4.596,9.532c-1.768,1.415-3.534,2.124-6,2.124
	h-19.429l-8.829,33.203h117.271l8.829-33.203h-22.604c-2.476,0-3.891-0.709-5.306-2.124c-1.057-1.415-0.703-4.59,0.712-9.532
	l19.429-72.769c3.882,14.132,11.303,25.791,22.604,34.259c11.307,8.481,25.789,12.719,43.451,12.719
	c18.012,0,34.262-3.89,48.75-12.01c14.474-8.122,26.489-18.718,36.728-32.145c9.888-13.423,17.662-28.609,22.965-45.918
	c5.293-17.313,8.12-35.322,8.12-54.398c0-12.009-1.769-22.96-5.297-33.204c-3.532-10.243-8.478-19.073-15.19-26.846
	c-6.71-7.421-14.836-13.424-24.37-17.665c-9.541-4.233-20.49-6.355-32.857-6.355C1353.72,415.31,1341.356,418.49,1330.407,424.848
	 M1107.518,425.909c-10.951,7.77-20.136,18.365-27.906,31.437l10.957-40.623c-5.303,1.06-12.72,2.119-22.26,3.182
	c-9.537,0.705-19.776,1.408-30.731,1.408h-41.325l-8.831,33.207h26.489c2.827,0,4.238,1.061,5.301,2.826
	c0.705,1.765,0.352,5.299-1.062,10.597l-46.622,169.901h59.692l19.073-70.996c4.945-19.076,9.891-35.678,15.193-50.16
	c4.943-14.481,10.596-26.842,16.25-36.383c5.646-9.888,12.008-17.308,19.069-22.251c7.064-4.946,14.837-7.421,23.666-7.421
	c3.188,0,6.361,0.708,9.541,1.768c2.823,1.059,5.303,2.826,6.709,4.945c-7.769,1.057-14.132,4.592-18.72,10.597
	c-4.942,6.005-7.062,12.362-7.062,19.076c0.352,7.77,3.179,14.128,8.474,19.072c5.303,4.946,12.715,7.417,22.254,7.417
	c6.357,0,12.365-1.763,18.01-4.589c5.303-3.183,10.252-7.418,14.134-12.363c3.889-4.947,7.065-10.952,9.186-18.014
	c2.118-6.713,2.823-14.131,2.823-21.902c-0.705-12.365-4.943-22.608-12.712-30.376c-8.128-7.773-19.075-11.658-32.852-11.658
	C1130.121,414.25,1118.117,418.137,1107.518,425.909 M563.541,341.133c-9.539,0.706-19.783,1.412-30.732,1.412h-38.857
	l-9.186,33.203h22.964c2.825,0,4.593,1.059,5.296,2.828c0.71,1.768,0,5.299-1.413,10.597L444.5,637.844h58.992
	c8.12-32.846,16.6-61.107,24.722-84.07c8.125-23.308,16.25-42.385,24.729-57.218c8.478-14.838,16.956-25.786,25.433-32.5
	c8.478-6.71,17.66-10.243,26.845-10.243c6.713,0,12.718,2.118,17.31,6.005c4.944,3.886,7.063,9.893,7.063,17.661
	c0,3.534-1.059,8.833-2.826,15.191c-1.763,6.708-3.886,14.13-6.359,21.898c-2.47,8.124-5.298,16.602-8.121,25.435
	c-2.825,8.829-5.653,17.66-8.125,25.786c-2.472,8.124-4.591,15.895-6.358,22.959c-1.768,7.062-2.826,12.364-2.826,16.602
	c0,13.423,3.887,23.312,12.012,29.317c8.121,6.004,19.074,8.831,33.908,8.831c6.358,0,13.07-0.352,19.429-1.41
	c6.358-0.712,12.716-2.479,18.721-4.596l8.829-32.852c-6.002,2.124-11.301,3.181-16.602,3.181c-8.829,0-13.423-4.239-13.423-13.068
	c0-4.238,1.771-12.011,5.655-22.958c3.531-11.305,7.768-23.666,12.362-37.089c4.59-13.425,8.476-26.848,12.361-39.918
	c3.531-13.07,5.654-23.314,5.654-30.732c0-15.897-5.654-28.258-16.603-36.383c-10.954-8.124-24.727-12.363-40.622-12.363
	c-18.368,0-34.615,4.595-48.746,13.776c-14.129,9.185-26.846,22.607-38.149,39.915L586.146,337.6
	C580.494,339.367,573.074,340.426,563.541,341.133"/>
</svg>
