<?xml version="1.0" encoding="UTF-8" standalone="no"?>
<!-- Generator: Adobe Illustrator 16.0.0, SVG Export Plug-In . SVG Version: 6.00 Build 0)  -->

<svg
   xmlns:dc="http://purl.org/dc/elements/1.1/"
   xmlns:cc="http://creativecommons.org/ns#"
   xmlns:rdf="http://www.w3.org/1999/02/22-rdf-syntax-ns#"
   xmlns:svg="http://www.w3.org/2000/svg"
   xmlns="http://www.w3.org/2000/svg"
   xmlns:sodipodi="http://sodipodi.sourceforge.net/DTD/sodipodi-0.dtd"
   xmlns:inkscape="http://www.inkscape.org/namespaces/inkscape"
   version="1.1"
   id="Layer_1"
   x="0px"
   y="0px"
   width="256"
   height="256"
   preserveAspectRatio="xMidYMid meet"
   viewBox="0 0 120 120"
   xml:space="preserve"
   inkscape:version="0.48.0 r9654"
   sodipodi:docname="middleman-logo.svg"><metadata
   id="metadata3131"><rdf:RDF><cc:Work
       rdf:about=""><dc:format>image/svg+xml</dc:format><dc:type
         rdf:resource="http://purl.org/dc/dcmitype/StillImage" /><dc:title></dc:title></cc:Work></rdf:RDF></metadata><defs
   id="defs3129" /><sodipodi:namedview
   pagecolor="#ffffff"
   bordercolor="#666666"
   borderopacity="1"
   objecttolerance="10"
   gridtolerance="10"
   guidetolerance="10"
   inkscape:pageopacity="0"
   inkscape:pageshadow="2"
   inkscape:window-width="1340"
   inkscape:window-height="805"
   id="namedview3127"
   showgrid="false"
   inkscape:zoom="3.2328014"
   inkscape:cx="60.122755"
   inkscape:cy="59.864208"
   inkscape:window-x="0"
   inkscape:window-y="0"
   inkscape:window-maximized="0"
   inkscape:current-layer="Layer_1" />
<rect
   style="fill:#002b36"
   width="120"
   height="120"
   id="rect3087"
   x="0"
   y="3.7550926e-06"
   ry="4.9492679" />





<g
   id="g3133"
   transform="matrix(0.35720228,0,0,0.35720228,-11.083255,2.6668926)"><g
     id="g3089">
	<polygon
   id="polygon3091"
   points="268.398,143.014 292.313,86.525 320,88.773 320,231.242 293.977,233.385 293.977,149.134 268.472,207.895 267.891,207.928 241.018,148.957 241.018,237.75 210.301,240.279 210.301,79.871 243.202,82.541 "
   style="fill:#efe8d5" />
</g><polygon
     id="polygon3093"
     points="320,55.062 199,38.844 199,56.691 320,69.081 "
     style="fill:#efe8d5" /><polygon
     id="polygon3095"
     points="320,251.929 199,264.319 199,282.168 320,265.948 "
     style="fill:#efe8d5" /><g
     id="g3097">
	<polygon
   id="polygon3099"
   points="131.796,143.014 107.882,86.525 80.196,88.773 80.196,231.242 106.22,233.385 106.22,149.134 131.725,207.895 132.306,207.928 159.179,148.957 159.179,237.75 189.896,240.279 189.896,79.871 156.994,82.541 "
   style="fill:#c6bda8" />
</g><polygon
     id="polygon3101"
     points="78,55.062 199,38.844 199,56.691 78,69.081 "
     style="fill:#c6bda8" /><polygon
     id="polygon3103"
     points="78,251.929 199,264.319 199,282.168 78,265.948 "
     style="fill:#c6bda8" /></g>


</svg>